<svg width="800" height="800" viewBox="0 0 800 800" fill="none" xmlns="http://www.w3.org/2000/svg">
<path d="M733.333 333.333C733.95 357.57 733.333 368.473 733.333 400C733.333 525.706 733.333 588.563 694.28 627.613C655.23 666.666 592.373 666.666 466.667 666.666H333.333C207.625 666.666 144.772 666.666 105.719 627.613C66.6668 588.563 66.6667 525.706 66.6667 400C66.6667 274.292 66.6668 211.438 105.719 172.385C144.772 133.333 207.625 133.333 333.333 133.333H433.333" stroke="#74423C" stroke-width="50" stroke-linecap="round"/>
<path d="M200 266.667L271.963 326.636C333.184 377.654 363.797 403.164 400 403.164C436.203 403.164 466.817 377.654 528.037 326.636" stroke="#74423C" stroke-width="50" stroke-linecap="round"/>
<path d="M633.333 266.667C688.562 266.667 733.333 221.895 733.333 166.667C733.333 111.439 688.562 66.667 633.333 66.667C578.105 66.667 533.333 111.439 533.333 166.667C533.333 221.895 578.105 266.667 633.333 266.667Z" stroke="#74423C" stroke-width="50"/>
</svg>
