<svg width="800" height="800" viewBox="0 0 800 800" fill="none" xmlns="http://www.w3.org/2000/svg">
<g clip-path="url(#clip0_13_53)">
<path d="M400 333.333C473.638 333.333 533.333 273.638 533.333 200C533.333 126.362 473.638 66.6667 400 66.6667C326.362 66.6667 266.667 126.362 266.667 200C266.667 273.638 326.362 333.333 400 333.333Z" stroke="#74423C" stroke-width="75"/>
<path d="M600 300C655.23 300 700 262.69 700 216.667C700 170.643 655.23 133.333 600 133.333" stroke="#74423C" stroke-width="75" stroke-linecap="round"/>
<path d="M200 300C144.772 300 100 262.69 100 216.667C100 170.643 144.772 133.333 200 133.333" stroke="#74423C" stroke-width="75" stroke-linecap="round"/>
<path d="M400 700C510.457 700 600 640.305 600 566.667C600 493.029 510.457 433.333 400 433.333C289.543 433.333 200 493.029 200 566.667C200 640.305 289.543 700 400 700Z" stroke="#74423C" stroke-width="75"/>
<path d="M666.667 633.333C725.14 620.51 766.667 588.037 766.667 550C766.667 511.963 725.14 479.49 666.667 466.667" stroke="#74423C" stroke-width="75" stroke-linecap="round"/>
<path d="M133.333 633.333C74.8582 620.51 33.3333 588.037 33.3333 550C33.3333 511.963 74.8582 479.49 133.333 466.667" stroke="#74423C" stroke-width="75" stroke-linecap="round"/>
</g>
<defs>
<clipPath id="clip0_13_53">
<rect width="800" height="800" fill="white"/>
</clipPath>
</defs>
</svg>
