<svg width="800" height="800" viewBox="0 0 800 800" fill="none" xmlns="http://www.w3.org/2000/svg">
<path d="M266.667 533.333C266.667 627.613 266.667 674.753 295.956 704.043C325.245 733.333 372.387 733.333 466.667 733.333H500C594.28 733.333 641.42 733.333 670.71 704.043C700 674.753 700 627.613 700 533.333V266.667C700 172.386 700 125.245 670.71 95.956C641.42 66.6666 594.28 66.6666 500 66.6666H466.667C372.387 66.6666 325.245 66.6666 295.956 95.956C266.667 125.245 266.667 172.386 266.667 266.667" stroke="#F4D3D0" stroke-width="75" stroke-linecap="round"/>
<path opacity="0.5" d="M266.667 650C188.099 650 148.816 650 124.408 625.593C100 601.183 100 561.9 100 483.333V316.667C100 238.099 100 198.816 124.408 174.408C148.816 150 188.099 150 266.667 150" stroke="#F4D3D0" stroke-width="75"/>
<path d="M200 400H500M500 400L416.667 483.333M500 400L416.667 316.667" stroke="#F4D3D0" stroke-width="75" stroke-linecap="round" stroke-linejoin="round"/>
</svg>
