<svg width="750" height="500" viewBox="0 0 750 500" fill="none" xmlns="http://www.w3.org/2000/svg">
<path d="M139 420.975C141.211 424.845 143.419 429.015 144.955 431.975H663.033C667.428 422.97 684.098 383.415 678 311.975C671 229.975 582 126.975 495 95.975C408 64.975 376 121.975 326 154.975C276 187.975 208 153.975 140 195.975C72.0001 237.975 68.0001 318.975 90.0001 360.975C112 402.975 135 413.975 139 420.975Z" fill="#74423C"/>
<path opacity="0.7" d="M139 420.975C141.211 424.845 143.419 429.015 144.955 431.975H663.033C667.428 422.97 684.098 383.415 678 311.975C671 229.975 582 126.975 495 95.975C408 64.975 376 121.975 326 154.975C276 187.975 208 153.975 140 195.975C72.0001 237.975 68.0001 318.975 90.0001 360.975C112 402.975 135 413.975 139 420.975Z" fill="white"/>
<path d="M690.627 294.739H41.481V298.127H690.627V294.739Z" fill="#263238"/>
<path d="M485 240.174V108.904" stroke="#263238" stroke-miterlimit="10" stroke-linecap="round" stroke-linejoin="round"/>
<path d="M485 296.74V246.554" stroke="#263238" stroke-miterlimit="10" stroke-linecap="round" stroke-linejoin="round"/>
<path d="M317 145.901V110.072" stroke="#263238" stroke-miterlimit="10" stroke-linecap="round" stroke-linejoin="round"/>
<path d="M317 296.739V152.28" stroke="#263238" stroke-miterlimit="10" stroke-linecap="round" stroke-linejoin="round"/>
<path d="M653.338 137.395V108.904" stroke="#263238" stroke-miterlimit="10" stroke-linecap="round" stroke-linejoin="round"/>
<path d="M653.338 296.739V143.775" stroke="#263238" stroke-miterlimit="10" stroke-linecap="round" stroke-linejoin="round"/>
<path d="M148.662 296.739V110.072" stroke="#263238" stroke-miterlimit="10" stroke-linecap="round" stroke-linejoin="round"/>
<path d="M643.739 204.531H674.566" stroke="#263238" stroke-miterlimit="10" stroke-linecap="round" stroke-linejoin="round"/>
<path d="M228.372 204.531H638.777" stroke="#263238" stroke-miterlimit="10" stroke-linecap="round" stroke-linejoin="round"/>
<path d="M134 204.531H223.41" stroke="#263238" stroke-miterlimit="10" stroke-linecap="round" stroke-linejoin="round"/>
<path d="M422.657 170.576L420.354 171.995" stroke="#263238" stroke-width="0.5" stroke-miterlimit="10" stroke-linecap="round" stroke-linejoin="round"/>
<path d="M461.477 146.652L425.751 168.669" stroke="#263238" stroke-width="0.5" stroke-miterlimit="10" stroke-linecap="round" stroke-linejoin="round"/>
<path d="M466.191 148.14L437.568 165.78" stroke="#263238" stroke-width="0.5" stroke-miterlimit="10" stroke-linecap="round" stroke-linejoin="round"/>
<path d="M478.691 140.436L470.047 145.764" stroke="#263238" stroke-width="0.5" stroke-miterlimit="10" stroke-linecap="round" stroke-linejoin="round"/>
<path d="M194.699 170.576L192.396 171.995" stroke="#263238" stroke-width="0.5" stroke-miterlimit="10" stroke-linecap="round" stroke-linejoin="round"/>
<path d="M233.519 146.652L197.793 168.669" stroke="#263238" stroke-width="0.5" stroke-miterlimit="10" stroke-linecap="round" stroke-linejoin="round"/>
<path d="M238.233 148.14L209.61 165.78" stroke="#263238" stroke-width="0.5" stroke-miterlimit="10" stroke-linecap="round" stroke-linejoin="round"/>
<path d="M250.733 140.436L242.089 145.764" stroke="#263238" stroke-width="0.5" stroke-miterlimit="10" stroke-linecap="round" stroke-linejoin="round"/>
<path d="M558.73 170.576L556.427 171.995" stroke="#263238" stroke-width="0.5" stroke-miterlimit="10" stroke-linecap="round" stroke-linejoin="round"/>
<path d="M597.551 146.652L561.825 168.669" stroke="#263238" stroke-width="0.5" stroke-miterlimit="10" stroke-linecap="round" stroke-linejoin="round"/>
<path d="M602.264 148.14L573.642 165.78" stroke="#263238" stroke-width="0.5" stroke-miterlimit="10" stroke-linecap="round" stroke-linejoin="round"/>
<path d="M614.765 140.436L606.12 145.764" stroke="#263238" stroke-width="0.5" stroke-miterlimit="10" stroke-linecap="round" stroke-linejoin="round"/>
<path d="M275.396 249.801L207.977 291.35" stroke="#263238" stroke-width="0.5" stroke-miterlimit="10" stroke-linecap="round" stroke-linejoin="round"/>
<path d="M284.291 252.608L230.277 285.895" stroke="#263238" stroke-width="0.5" stroke-miterlimit="10" stroke-linecap="round" stroke-linejoin="round"/>
<path d="M307.881 238.07L291.568 248.123" stroke="#263238" stroke-width="0.5" stroke-miterlimit="10" stroke-linecap="round" stroke-linejoin="round"/>
<path d="M445.78 291.404L441.434 294.082" stroke="#263238" stroke-width="0.5" stroke-miterlimit="10" stroke-linecap="round" stroke-linejoin="round"/>
<path d="M519.039 246.258L451.62 287.806" stroke="#263238" stroke-width="0.5" stroke-miterlimit="10" stroke-linecap="round" stroke-linejoin="round"/>
<path d="M527.934 249.064L473.92 282.352" stroke="#263238" stroke-width="0.5" stroke-miterlimit="10" stroke-linecap="round" stroke-linejoin="round"/>
<path d="M551.524 234.526L535.211 244.579" stroke="#263238" stroke-width="0.5" stroke-miterlimit="10" stroke-linecap="round" stroke-linejoin="round"/>
<path d="M242.335 104.539V91.9746H226.335V104.54C217.855 107.966 211.827 116.672 211.827 126.877C211.827 127.063 211.836 127.247 211.84 127.433H256.829C256.833 127.248 256.842 127.064 256.842 126.877C256.843 116.672 250.815 107.965 242.335 104.539Z" fill="#263238" stroke="#263238" stroke-miterlimit="10" stroke-linecap="round" stroke-linejoin="round"/>
<path d="M234.335 91.9746V61.9746" stroke="#263238" stroke-miterlimit="10" stroke-linecap="round" stroke-linejoin="round"/>
<path d="M558.335 104.539V91.9746H542.335V104.54C533.855 107.966 527.827 116.672 527.827 126.877C527.827 127.063 527.836 127.247 527.84 127.433H572.829C572.833 127.248 572.842 127.064 572.842 126.877C572.843 116.672 566.815 107.965 558.335 104.539Z" fill="#263238" stroke="#263238" stroke-miterlimit="10" stroke-linecap="round" stroke-linejoin="round"/>
<path d="M550.335 91.9746V61.9746" stroke="#263238" stroke-miterlimit="10" stroke-linecap="round" stroke-linejoin="round"/>
<path d="M26 431.975H704" stroke="#263238" stroke-miterlimit="10" stroke-linecap="round" stroke-linejoin="round"/>
<path d="M665.173 286.71L676.631 396.498" stroke="#263238" stroke-width="2" stroke-miterlimit="10"/>
<path d="M674.784 375.489L669.59 370.002" stroke="#263238" stroke-width="2" stroke-miterlimit="10"/>
<path d="M671.168 371.646C671.168 371.646 671.317 369.219 669.101 367.24C667.768 366.049 660.751 363.097 660.085 365.569C659.361 368.257 666.543 373.535 671.168 371.646Z" fill="#74423C" stroke="#263238" stroke-miterlimit="10"/>
<path d="M671.168 371.645L664.488 367.483" stroke="#263238" stroke-width="0.5" stroke-miterlimit="10"/>
<path d="M676.087 387.974L670.893 382.487" stroke="#263238" stroke-width="2" stroke-miterlimit="10"/>
<path d="M672.471 384.131C672.471 384.131 672.62 381.704 670.404 379.725C669.071 378.534 662.054 375.582 661.388 378.054C660.664 380.742 667.846 386.021 672.471 384.131Z" fill="#74423C" stroke="#263238" stroke-miterlimit="10"/>
<path d="M672.471 384.131L665.791 379.969" stroke="#263238" stroke-width="0.5" stroke-miterlimit="10"/>
<path d="M671.604 345.019L666.41 339.533" stroke="#263238" stroke-width="2" stroke-miterlimit="10"/>
<path d="M667.988 341.177C667.988 341.177 668.137 338.75 665.921 336.771C664.588 335.58 657.571 332.628 656.905 335.1C656.181 337.787 663.363 343.066 667.988 341.177Z" fill="#74423C" stroke="#263238" stroke-miterlimit="10"/>
<path d="M667.988 341.177L661.308 337.014" stroke="#263238" stroke-width="0.5" stroke-miterlimit="10"/>
<path d="M672.908 357.506L667.713 352.02" stroke="#263238" stroke-width="2" stroke-miterlimit="10"/>
<path d="M669.291 353.663C669.291 353.663 669.44 351.236 667.224 349.257C665.891 348.066 658.874 345.114 658.208 347.586C657.484 350.274 664.666 355.552 669.291 353.663Z" fill="#74423C" stroke="#263238" stroke-miterlimit="10"/>
<path d="M669.291 353.663L662.612 349.5" stroke="#263238" stroke-width="0.5" stroke-miterlimit="10"/>
<path d="M669.488 324.737L664.293 319.251" stroke="#263238" stroke-width="2" stroke-miterlimit="10"/>
<path d="M665.871 320.895C665.871 320.895 666.02 318.468 663.804 316.489C662.471 315.298 655.454 312.346 654.788 314.818C654.064 317.506 661.246 322.784 665.871 320.895Z" fill="#74423C" stroke="#263238" stroke-miterlimit="10"/>
<path d="M665.871 320.894L659.191 316.732" stroke="#263238" stroke-width="0.5" stroke-miterlimit="10"/>
<path d="M667.362 304.365L662.167 298.879" stroke="#263238" stroke-width="2" stroke-miterlimit="10"/>
<path d="M663.746 300.523C663.746 300.523 663.895 298.096 661.679 296.117C660.346 294.926 653.329 291.974 652.663 294.445C651.938 297.133 659.12 302.412 663.746 300.523Z" fill="#74423C" stroke="#263238" stroke-miterlimit="10"/>
<path d="M663.746 300.523L657.066 296.36" stroke="#263238" stroke-width="0.5" stroke-miterlimit="10"/>
<path d="M673.911 368.1L677.861 361.659" stroke="#263238" stroke-width="2" stroke-miterlimit="10"/>
<path d="M676.656 363.594C676.656 363.594 676.01 361.25 677.769 358.856C678.828 357.416 685.084 353.079 686.246 355.359C687.509 357.839 681.572 364.487 676.656 363.594Z" fill="#74423C" stroke="#263238" stroke-miterlimit="10"/>
<path d="M676.656 363.594L682.671 357.845" stroke="#263238" stroke-width="0.5" stroke-miterlimit="10"/>
<path d="M670.482 335.244L674.432 328.803" stroke="#263238" stroke-width="2" stroke-miterlimit="10"/>
<path d="M673.227 330.737C673.227 330.737 672.581 328.393 674.34 325.999C675.399 324.559 681.655 320.222 682.816 322.502C684.08 324.983 678.143 331.631 673.227 330.737Z" fill="#74423C" stroke="#263238" stroke-miterlimit="10"/>
<path d="M673.228 330.736L679.243 324.987" stroke="#263238" stroke-width="0.5" stroke-miterlimit="10"/>
<path d="M668.975 320.803L672.925 314.363" stroke="#263238" stroke-width="2" stroke-miterlimit="10"/>
<path d="M671.72 316.297C671.72 316.297 671.073 313.953 672.833 311.559C673.892 310.119 680.148 305.782 681.31 308.062C682.573 310.542 676.636 317.19 671.72 316.297Z" fill="#74423C" stroke="#263238" stroke-miterlimit="10"/>
<path d="M671.72 316.297L677.735 310.548" stroke="#263238" stroke-width="0.5" stroke-miterlimit="10"/>
<path d="M666.766 299.635L670.716 293.194" stroke="#263238" stroke-width="2" stroke-miterlimit="10"/>
<path d="M669.511 295.128C669.511 295.128 668.865 292.784 670.624 290.39C671.683 288.95 677.939 284.613 679.101 286.893C680.364 289.374 674.427 296.022 669.511 295.128Z" fill="#74423C" stroke="#263238" stroke-miterlimit="10"/>
<path d="M669.511 295.129L675.526 289.38" stroke="#263238" stroke-width="0.5" stroke-miterlimit="10"/>
<path d="M665.077 286.1C665.077 286.1 664.431 283.756 666.19 281.362C667.249 279.922 673.505 275.585 674.667 277.865C675.93 280.346 669.993 286.994 665.077 286.1Z" fill="#74423C" stroke="#263238" stroke-miterlimit="10"/>
<path d="M665.077 286.101L671.092 280.352" stroke="#263238" stroke-width="0.5" stroke-miterlimit="10"/>
<path d="M665.425 286.348C665.425 286.348 663.026 286.745 660.83 284.744C659.509 283.54 655.852 276.864 658.241 275.948C660.841 274.952 666.829 281.553 665.425 286.348Z" fill="#74423C" stroke="#263238" stroke-miterlimit="10"/>
<path d="M665.425 286.349L660.339 279.765" stroke="#263238" stroke-width="0.5" stroke-miterlimit="10"/>
<path d="M695.393 301.831L684 411.626" stroke="#263238" stroke-width="2" stroke-miterlimit="10"/>
<path d="M686.519 390.685L682.566 384.247" stroke="#263238" stroke-width="2" stroke-miterlimit="10"/>
<path d="M683.772 386.18C683.772 386.18 684.417 383.836 682.656 381.443C681.596 380.003 675.338 375.67 674.177 377.951C672.915 380.432 678.856 387.077 683.772 386.18Z" fill="#74423C" stroke="#263238" stroke-miterlimit="10"/>
<path d="M683.772 386.179L678.092 380.73" stroke="#263238" stroke-width="0.5" stroke-miterlimit="10"/>
<path d="M689.681 360.215L685.727 353.777" stroke="#263238" stroke-width="2" stroke-miterlimit="10"/>
<path d="M686.933 355.71C686.933 355.71 687.578 353.366 685.817 350.973C684.757 349.533 678.499 345.2 677.338 347.481C676.077 349.962 682.018 356.607 686.933 355.71Z" fill="#74423C" stroke="#263238" stroke-miterlimit="10"/>
<path d="M686.933 355.71L681.253 350.261" stroke="#263238" stroke-width="0.5" stroke-miterlimit="10"/>
<path d="M688.386 372.702L684.433 366.263" stroke="#263238" stroke-width="2" stroke-miterlimit="10"/>
<path d="M685.638 368.196C685.638 368.196 686.283 365.852 684.522 363.459C683.462 362.019 677.204 357.686 676.043 359.967C674.781 362.448 680.722 369.092 685.638 368.196Z" fill="#74423C" stroke="#263238" stroke-miterlimit="10"/>
<path d="M685.638 368.196L679.958 362.747" stroke="#263238" stroke-width="0.5" stroke-miterlimit="10"/>
<path d="M691.786 339.931L687.832 333.493" stroke="#263238" stroke-width="2" stroke-miterlimit="10"/>
<path d="M689.038 335.426C689.038 335.426 689.683 333.082 687.922 330.689C686.862 329.249 680.604 324.916 679.443 327.197C678.182 329.678 684.123 336.323 689.038 335.426Z" fill="#74423C" stroke="#263238" stroke-miterlimit="10"/>
<path d="M689.038 335.426L683.358 329.977" stroke="#263238" stroke-width="0.5" stroke-miterlimit="10"/>
<path d="M693.9 319.558L689.946 313.12" stroke="#263238" stroke-width="2" stroke-miterlimit="10"/>
<path d="M691.152 315.054C691.152 315.054 691.797 312.71 690.036 310.317C688.976 308.877 682.718 304.544 681.557 306.825C680.295 309.306 686.237 315.95 691.152 315.054Z" fill="#74423C" stroke="#263238" stroke-miterlimit="10"/>
<path d="M691.152 315.053L685.472 309.604" stroke="#263238" stroke-width="0.5" stroke-miterlimit="10"/>
<path d="M687.186 383.275L692.377 377.785" stroke="#263238" stroke-width="2" stroke-miterlimit="10"/>
<path d="M690.8 379.431C690.8 379.431 690.65 377.004 692.865 375.024C694.198 373.833 701.212 370.876 701.88 373.347C702.605 376.035 695.426 381.318 690.8 379.431Z" fill="#74423C" stroke="#263238" stroke-miterlimit="10"/>
<path d="M690.8 379.431L697.87 375.044" stroke="#263238" stroke-width="0.5" stroke-miterlimit="10"/>
<path d="M690.595 350.417L695.786 344.927" stroke="#263238" stroke-width="2" stroke-miterlimit="10"/>
<path d="M694.209 346.572C694.209 346.572 694.059 344.145 696.274 342.165C697.607 340.973 704.622 338.018 705.289 340.488C706.015 343.176 698.836 348.459 694.209 346.572Z" fill="#74423C" stroke="#263238" stroke-miterlimit="10"/>
<path d="M694.209 346.572L701.279 342.184" stroke="#263238" stroke-width="0.5" stroke-miterlimit="10"/>
<path d="M692.094 335.975L697.285 330.486" stroke="#263238" stroke-width="2" stroke-miterlimit="10"/>
<path d="M695.708 332.132C695.708 332.132 695.558 329.705 697.773 327.725C699.106 326.534 706.12 323.577 706.788 326.048C707.513 328.735 700.334 334.018 695.708 332.132Z" fill="#74423C" stroke="#263238" stroke-miterlimit="10"/>
<path d="M695.708 332.132L702.778 327.744" stroke="#263238" stroke-width="0.5" stroke-miterlimit="10"/>
<path d="M694.291 314.805L699.482 309.316" stroke="#263238" stroke-width="2" stroke-miterlimit="10"/>
<path d="M697.904 310.961C697.904 310.961 697.754 308.534 699.969 306.554C701.302 305.363 708.317 302.407 708.984 304.877C709.71 307.564 702.531 312.848 697.904 310.961Z" fill="#74423C" stroke="#263238" stroke-miterlimit="10"/>
<path d="M697.904 310.961L704.974 306.573" stroke="#263238" stroke-width="0.5" stroke-miterlimit="10"/>
<path d="M695.424 301.213C695.424 301.213 695.274 298.786 697.489 296.806C698.821 295.615 705.837 292.659 706.504 295.129C707.23 297.817 700.051 303.1 695.424 301.213Z" fill="#74423C" stroke="#263238" stroke-miterlimit="10"/>
<path d="M695.424 301.213L702.494 296.826" stroke="#263238" stroke-width="0.5" stroke-miterlimit="10"/>
<path d="M695.714 301.529C695.714 301.529 693.285 301.424 691.548 299.013C690.503 297.563 688.299 290.276 690.826 289.872C693.575 289.432 698.076 297.125 695.714 301.529Z" fill="#74423C" stroke="#263238" stroke-miterlimit="10"/>
<path d="M695.714 301.528L692.092 294.037" stroke="#263238" stroke-width="0.5" stroke-miterlimit="10"/>
<path d="M682.337 257.122V395.965" stroke="#263238" stroke-width="2" stroke-miterlimit="10"/>
<path d="M682.449 375.088L677.852 369.093" stroke="#263238" stroke-width="2" stroke-miterlimit="10"/>
<path d="M679.25 370.892C679.25 370.892 679.65 368.494 677.651 366.295C676.449 364.972 669.776 361.308 668.857 363.697C667.858 366.295 674.453 372.29 679.25 370.892Z" fill="#74423C" stroke="#263238" stroke-miterlimit="10"/>
<path d="M679.25 370.892L673.038 366.058" stroke="#263238" stroke-width="0.5" stroke-miterlimit="10"/>
<path d="M682.449 348.996L677.852 343.001" stroke="#263238" stroke-width="2" stroke-miterlimit="10"/>
<path d="M679.25 344.799C679.25 344.799 679.65 342.401 677.651 340.202C676.449 338.879 669.776 335.215 668.857 337.604C667.858 340.203 674.453 346.198 679.25 344.799Z" fill="#74423C" stroke="#263238" stroke-miterlimit="10"/>
<path d="M679.25 344.799L673.038 339.966" stroke="#263238" stroke-width="0.5" stroke-miterlimit="10"/>
<path d="M682.449 318.362L677.852 312.367" stroke="#263238" stroke-width="2" stroke-miterlimit="10"/>
<path d="M679.25 314.165C679.25 314.165 679.65 311.767 677.651 309.568C676.449 308.245 669.776 304.581 668.857 306.97C667.858 309.569 674.453 315.565 679.25 314.165Z" fill="#74423C" stroke="#263238" stroke-miterlimit="10"/>
<path d="M679.25 314.165L673.038 309.332" stroke="#263238" stroke-width="0.5" stroke-miterlimit="10"/>
<path d="M682.449 297.97L677.852 291.974" stroke="#263238" stroke-width="2" stroke-miterlimit="10"/>
<path d="M679.25 293.772C679.25 293.772 679.65 291.374 677.651 289.175C676.449 287.852 669.776 284.188 668.857 286.577C667.858 289.175 674.453 295.171 679.25 293.772Z" fill="#74423C" stroke="#263238" stroke-miterlimit="10"/>
<path d="M679.25 293.772L673.038 288.938" stroke="#263238" stroke-width="0.5" stroke-miterlimit="10"/>
<path d="M682.449 277.488L677.852 271.492" stroke="#263238" stroke-width="2" stroke-miterlimit="10"/>
<path d="M679.25 273.291C679.25 273.291 679.65 270.893 677.651 268.694C676.449 267.371 669.776 263.707 668.857 266.096C667.858 268.694 674.453 274.69 679.25 273.291Z" fill="#74423C" stroke="#263238" stroke-miterlimit="10"/>
<path d="M679.25 273.291L673.038 268.457" stroke="#263238" stroke-width="0.5" stroke-miterlimit="10"/>
<path d="M682.346 383.056L686.943 377.06" stroke="#263238" stroke-width="2" stroke-miterlimit="10"/>
<path d="M685.544 378.858C685.544 378.858 685.145 376.46 687.143 374.261C688.345 372.938 695.018 369.274 695.937 371.663C696.936 374.261 690.34 380.257 685.544 378.858Z" fill="#74423C" stroke="#263238" stroke-miterlimit="10"/>
<path d="M685.544 378.859L692.123 373.765" stroke="#263238" stroke-width="0.5" stroke-miterlimit="10"/>
<path d="M682.346 341.559L686.943 335.562" stroke="#263238" stroke-width="2" stroke-miterlimit="10"/>
<path d="M685.544 337.361C685.544 337.361 685.145 334.963 687.143 332.764C688.345 331.441 695.018 327.777 695.937 330.166C696.936 332.764 690.34 338.76 685.544 337.361Z" fill="#74423C" stroke="#263238" stroke-miterlimit="10"/>
<path d="M685.544 337.362L692.123 332.268" stroke="#263238" stroke-width="0.5" stroke-miterlimit="10"/>
<path d="M682.346 321.076L686.943 315.08" stroke="#263238" stroke-width="2" stroke-miterlimit="10"/>
<path d="M685.544 316.879C685.544 316.879 685.145 314.481 687.143 312.282C688.345 310.959 695.018 307.295 695.937 309.684C696.936 312.282 690.34 318.278 685.544 316.879Z" fill="#74423C" stroke="#263238" stroke-miterlimit="10"/>
<path d="M685.544 316.879L692.123 311.785" stroke="#263238" stroke-width="0.5" stroke-miterlimit="10"/>
<path d="M682.346 294.004L686.943 288.009" stroke="#263238" stroke-width="2" stroke-miterlimit="10"/>
<path d="M685.544 289.807C685.544 289.807 685.145 287.409 687.143 285.21C688.345 283.887 695.018 280.223 695.937 282.612C696.936 285.211 690.34 291.206 685.544 289.807Z" fill="#74423C" stroke="#263238" stroke-miterlimit="10"/>
<path d="M685.544 289.807L692.123 284.713" stroke="#263238" stroke-width="0.5" stroke-miterlimit="10"/>
<path d="M682.346 272.721L686.943 266.725" stroke="#263238" stroke-width="2" stroke-miterlimit="10"/>
<path d="M685.544 268.523C685.544 268.523 685.145 266.125 687.143 263.926C688.345 262.603 695.018 258.939 695.937 261.328C696.936 263.926 690.34 269.922 685.544 268.523Z" fill="#74423C" stroke="#263238" stroke-miterlimit="10"/>
<path d="M685.544 268.524L692.123 263.43" stroke="#263238" stroke-width="0.5" stroke-miterlimit="10"/>
<path d="M682.071 259.084C682.071 259.084 681.671 256.686 683.67 254.487C684.872 253.164 691.545 249.5 692.464 251.889C693.463 254.488 686.867 260.483 682.071 259.084Z" fill="#74423C" stroke="#263238" stroke-miterlimit="10"/>
<path d="M682.071 259.084L688.65 253.991" stroke="#263238" stroke-width="0.5" stroke-miterlimit="10"/>
<path d="M682.392 259.367C682.392 259.367 679.965 259.513 677.988 257.295C676.799 255.96 673.854 248.94 676.327 248.277C679.015 247.556 684.286 254.744 682.392 259.367Z" fill="#74423C" stroke="#263238" stroke-miterlimit="10"/>
<path d="M682.392 259.367L678.016 252.29" stroke="#263238" stroke-width="0.5" stroke-miterlimit="10"/>
<path d="M688.049 431.975H673.345L671.507 394.839H689.887L688.049 431.975Z" fill="#263238" stroke="#263238" stroke-miterlimit="10"/>
<path d="M131 196.975H50V431.975H131V196.975Z" fill="white" stroke="#263238" stroke-miterlimit="10" stroke-linecap="round" stroke-linejoin="round"/>
<path d="M123 216.975H57V256.975H123V216.975Z" fill="white" stroke="#263238" stroke-miterlimit="10" stroke-linecap="round" stroke-linejoin="round"/>
<path d="M98 229.975H82V243.975H98V229.975Z" fill="#263238" stroke="#263238" stroke-miterlimit="10" stroke-linecap="round" stroke-linejoin="round"/>
<path d="M95.1419 232.475H84.8569V241.475H95.1419V232.475Z" fill="white" stroke="#263238" stroke-miterlimit="10" stroke-linecap="round" stroke-linejoin="round"/>
<path d="M123 263.909H57V303.909H123V263.909Z" fill="white" stroke="#263238" stroke-miterlimit="10" stroke-linecap="round" stroke-linejoin="round"/>
<path d="M98 276.909H82V290.909H98V276.909Z" fill="#263238" stroke="#263238" stroke-miterlimit="10" stroke-linecap="round" stroke-linejoin="round"/>
<path d="M95.1419 279.409H84.8569V288.409H95.1419V279.409Z" fill="white" stroke="#263238" stroke-miterlimit="10" stroke-linecap="round" stroke-linejoin="round"/>
<path d="M123 310.846H57V350.846H123V310.846Z" fill="white" stroke="#263238" stroke-miterlimit="10" stroke-linecap="round" stroke-linejoin="round"/>
<path d="M98 323.846H82V337.846H98V323.846Z" fill="#263238" stroke="#263238" stroke-miterlimit="10" stroke-linecap="round" stroke-linejoin="round"/>
<path d="M95.1419 326.346H84.8569V335.346H95.1419V326.346Z" fill="white" stroke="#263238" stroke-miterlimit="10" stroke-linecap="round" stroke-linejoin="round"/>
<path d="M123 357.78H57V397.78H123V357.78Z" fill="white" stroke="#263238" stroke-miterlimit="10" stroke-linecap="round" stroke-linejoin="round"/>
<path d="M98 370.78H82V384.78H98V370.78Z" fill="#263238" stroke="#263238" stroke-miterlimit="10" stroke-linecap="round" stroke-linejoin="round"/>
<path d="M95.1419 373.281H84.8569V382.281H95.1419V373.281Z" fill="white" stroke="#263238" stroke-miterlimit="10" stroke-linecap="round" stroke-linejoin="round"/>
<path d="M92.1662 165.946H55.5342V196.614H92.1662V165.946Z" stroke="#263238" stroke-miterlimit="10" stroke-linecap="round" stroke-linejoin="round"/>
<path d="M92.1652 184.262H74.7012L67.0352 166.372L66.9692 165.946H55.5342V196.614H92.1652V184.262Z" fill="#263238" stroke="#263238" stroke-miterlimit="10" stroke-linecap="round" stroke-linejoin="round"/>
<path d="M122.407 181.28H109.629V197.04H122.407V181.28Z" fill="#263238" stroke="#263238" stroke-miterlimit="10" stroke-linecap="round" stroke-linejoin="round"/>
<path d="M115.705 172.204C115.705 172.204 121.13 169.354 122.408 164.242C123.686 159.131 117.297 149.334 117.297 149.334C117.297 149.334 110.908 156.575 110.908 161.687C110.908 166.799 115.705 172.204 115.705 172.204Z" fill="#74423C" stroke="#263238" stroke-miterlimit="10" stroke-linecap="round" stroke-linejoin="round"/>
<path d="M112.41 178.463C112.41 178.463 113.463 171.483 109.629 168.927C105.795 166.371 96.8511 167.649 96.8511 167.649C96.8511 167.649 98.5551 177.872 103.24 178.724C107.925 179.576 112.41 178.463 112.41 178.463Z" fill="#74423C" stroke="#263238" stroke-miterlimit="10" stroke-linecap="round" stroke-linejoin="round"/>
<path d="M121.982 176.169C121.982 176.169 121.556 171.058 125.39 167.224C129.224 163.391 137.317 165.52 137.317 165.52C137.317 165.52 135.613 172.761 130.928 175.317C126.241 177.872 121.982 176.169 121.982 176.169Z" fill="#74423C" stroke="#263238" stroke-miterlimit="10" stroke-linecap="round" stroke-linejoin="round"/>
<path d="M114.741 181.706L108.777 174.465" stroke="#263238" stroke-miterlimit="10" stroke-linecap="round" stroke-linejoin="round"/>
<path d="M116.019 159.13V183.41L126.667 171.057" stroke="#263238" stroke-miterlimit="10" stroke-linecap="round" stroke-linejoin="round"/>
<path d="M601.261 241.269C601.261 241.269 607.191 241.808 610.426 245.582C613.661 249.356 614.739 259.329 614.199 263.644C613.862 266.347 614.877 268.605 617.077 270.216C620.081 272.415 622.963 275.367 623.575 279.317C624.145 282.992 623.059 289.594 619.59 291.675C615.547 294.101 610.156 298.953 612.851 300.84C615.546 302.727 617.972 302.457 617.972 302.457C617.972 302.457 618.242 308.117 610.155 308.117C602.068 308.117 600.182 302.187 602.069 295.179C603.956 288.171 608.538 280.084 604.225 276.311C599.912 272.537 598.025 265.529 600.721 260.947C603.416 256.365 604.495 246.661 602.069 244.235C599.644 241.808 601.261 241.269 601.261 241.269Z" fill="#263238" stroke="#263238" stroke-miterlimit="10" stroke-linecap="round" stroke-linejoin="round"/>
<path d="M518.977 349.256L526.524 414.667L534.63 414.108L536.587 364.072L541.619 363.513L573.206 365.47C573.206 365.47 577.119 364.631 578.238 364.631C579.356 364.631 580.754 361.556 574.045 358.761C567.336 355.966 520.934 347.021 519.816 347.021C518.698 347.019 518.977 349.256 518.977 349.256Z" fill="#263238" stroke="#263238" stroke-miterlimit="10" stroke-linecap="round" stroke-linejoin="round"/>
<path d="M562.864 340.032C562.864 340.032 533.835 330.421 505.56 336.678C503.244 337.19 498.292 396.218 498.292 396.218L505.839 398.454L517.579 351.772C517.579 351.772 566.777 366.028 576.84 364.631C586.904 363.233 562.864 340.032 562.864 340.032Z" fill="#263238" stroke="#263238" stroke-miterlimit="10" stroke-linecap="round" stroke-linejoin="round"/>
<path d="M570.97 241.357C570.97 241.357 568.734 247.227 568.734 250.022C568.734 252.817 569.013 254.774 569.013 254.774C569.013 254.774 565.099 258.967 566.497 260.365C567.895 261.763 567.895 261.763 567.895 261.763C567.895 261.763 569.852 272.665 571.529 273.224C573.206 273.783 580.195 272.385 580.195 272.385L580.3 287.798L594.172 276.019L593.054 267.074C593.054 267.074 596.408 262.322 600.322 256.731C604.235 251.14 601.999 242.195 599.763 238.002C597.527 233.809 580.475 225.143 569.014 239.4L570.97 241.357Z" fill="white" stroke="#263238" stroke-miterlimit="10" stroke-linecap="round" stroke-linejoin="round"/>
<path d="M580.195 272.384L584.091 271.369L580.48 278.59L580.195 272.384Z" fill="#263238" stroke="#263238" stroke-miterlimit="10" stroke-linecap="round" stroke-linejoin="round"/>
<path d="M599.762 238.003C597.526 233.81 580.474 225.144 569.013 239.401L570.97 241.358L584.947 256.732C584.947 256.732 586.381 252.171 589.42 254.775C591.377 256.452 590.538 260.086 589.699 260.366C588.86 260.646 586.904 263.441 586.904 263.441L593.054 267.075C593.054 267.075 596.408 262.323 600.322 256.732C604.235 251.141 601.998 242.196 599.762 238.003Z" fill="#263238" stroke="#263238" stroke-miterlimit="10" stroke-linecap="round" stroke-linejoin="round"/>
<path d="M571.406 256.622C571.822 256.622 572.159 255.851 572.159 254.9C572.159 253.949 571.822 253.178 571.406 253.178C570.99 253.178 570.653 253.949 570.653 254.9C570.653 255.851 570.99 256.622 571.406 256.622Z" fill="#263238"/>
<path d="M570.438 250.596C570.438 250.596 571.944 249.95 573.666 251.457" stroke="#263238" stroke-miterlimit="10" stroke-linecap="round" stroke-linejoin="round"/>
<path d="M570.007 263.507C570.007 263.507 572.374 263.937 574.096 262.646" stroke="#263238" stroke-miterlimit="10" stroke-linecap="round" stroke-linejoin="round"/>
<path d="M571.613 312.501L541.528 314.931L531.857 314.035C531.857 314.035 518.542 318.556 521.138 319.431C523.734 320.306 526.757 319.368 526.757 319.368C526.757 319.368 530.709 321.019 534.621 320.932C538.534 320.844 541.103 320.063 541.103 320.063L574.656 325.111L571.613 312.501Z" fill="#263238" stroke="#263238" stroke-miterlimit="10" stroke-linecap="round" stroke-linejoin="round"/>
<path d="M593.613 274.342C593.613 274.342 576.282 291.114 573.487 295.307C570.692 299.5 569.574 303.134 569.574 306.768C569.574 310.402 572.09 318.508 572.09 318.508L568.736 330.528L558.952 339.473L574.326 364.072C574.326 364.072 581.314 365.47 586.066 362.674C590.818 359.879 593.893 347.859 593.893 341.989C593.893 336.119 592.775 323.54 592.775 323.54C592.775 323.54 599.204 303.414 601.161 295.866C603.118 288.319 603.397 281.61 601.441 277.976C599.483 274.342 596.408 272.385 593.613 274.342Z" fill="#74423C" stroke="#263238" stroke-miterlimit="10" stroke-linecap="round" stroke-linejoin="round"/>
<path d="M526.525 414.666L517.021 425.288C517.021 425.288 509.753 427.524 508.635 428.642C507.517 429.76 509.753 430.319 512.548 431.437C515.343 432.555 525.686 430.878 529.04 430.598C532.394 430.318 535.469 430.598 536.587 427.803C537.705 425.008 536.587 421.933 536.308 420.815C536.028 419.697 534.631 414.106 534.631 414.106L526.525 414.666Z" fill="white" stroke="#263238" stroke-miterlimit="10" stroke-linecap="round" stroke-linejoin="round"/>
<path d="M516.546 425.438C514.932 425.95 509.582 427.696 508.635 428.643C507.517 429.761 509.753 430.32 512.549 431.438C515.344 432.556 525.687 430.879 529.041 430.599C532.395 430.32 535.47 430.599 536.588 427.804C537.706 425.009 536.588 421.934 536.309 420.816C536.277 420.69 536.23 420.5 536.173 420.274C531.293 423.334 522.991 426.687 521.214 426.687C520.008 426.686 518.075 426.037 516.546 425.438Z" fill="#74423C" stroke="#263238" stroke-miterlimit="10" stroke-linecap="round" stroke-linejoin="round"/>
<path d="M498.292 396.218C498.292 396.218 487.39 408.238 485.993 409.915C484.595 411.592 480.402 412.151 480.682 414.108C480.961 416.065 485.434 415.506 487.391 415.226C489.348 414.946 501.647 411.872 503.324 411.312C505.001 410.753 507.238 409.914 507.517 407.399C507.797 404.883 505.84 398.454 505.84 398.454L498.292 396.218Z" fill="white" stroke="#263238" stroke-miterlimit="10" stroke-linecap="round" stroke-linejoin="round"/>
<path d="M507.516 407.4C507.691 405.83 506.994 402.736 506.446 400.632C503.702 401.974 501.051 405.601 499.689 406.282C498.012 407.121 485.153 411.314 485.153 411.314L484.567 410.984C482.807 411.951 480.47 412.632 480.681 414.109C480.96 416.066 485.433 415.507 487.39 415.227C489.347 414.947 501.646 411.872 503.323 411.313C505.001 410.754 507.237 409.915 507.516 407.4Z" fill="#74423C" stroke="#263238" stroke-miterlimit="10" stroke-linecap="round" stroke-linejoin="round"/>
<path d="M588.593 288.978L580.776 315.124L541.528 314.929L541.104 320.061C541.104 320.061 580.506 328.062 583.202 328.062C585.898 328.062 588.862 327.253 589.941 325.367C591.019 323.48 602.34 295.447 602.879 289.247C603.418 283.047 602.07 278.465 599.644 277.117C597.218 275.769 592.366 278.195 590.749 280.891" fill="#74423C"/>
<path d="M588.593 288.978L580.776 315.124L541.528 314.929L541.104 320.061C541.104 320.061 580.506 328.062 583.202 328.062C585.898 328.062 588.862 327.253 589.941 325.367C591.019 323.48 602.34 295.447 602.879 289.247C603.418 283.047 602.07 278.465 599.644 277.117C597.218 275.769 592.366 278.195 590.749 280.891" stroke="#263238" stroke-miterlimit="10" stroke-linecap="round" stroke-linejoin="round"/>
<path d="M541.528 314.93C541.528 314.93 530.419 312.482 528.802 312.519C527.185 312.555 518.946 317.862 518.964 318.671C518.982 319.48 521.138 319.431 521.138 319.431L524.905 319.077L528.929 318.178C528.929 318.178 532.456 319.177 534.073 319.141C535.69 319.105 538.103 318.511 538.103 318.511L541.103 320.062L541.528 314.93Z" fill="white" stroke="#263238" stroke-miterlimit="10" stroke-linecap="round" stroke-linejoin="round"/>
<path d="M611.75 281.199L607.25 280.949C607.25 280.949 595.75 314.199 594.25 326.699C592.75 339.199 593.25 349.699 594 353.199C594.75 356.699 598.75 363.449 598.75 363.449L603.75 364.699C603.75 364.699 598.5 351.199 598.25 347.449C598 343.699 598.645 328.82 599 326.949C601.75 312.449 611.75 281.199 611.75 281.199Z" fill="white" stroke="#263238" stroke-miterlimit="10" stroke-linecap="round" stroke-linejoin="round"/>
<path d="M571.5 408.699C571.5 408.699 546.75 421.199 546.25 423.949C545.75 426.699 546.25 430.199 546.25 430.199L547.125 429.324L549.5 423.699L571.75 413.199L571.5 408.699Z" fill="white" stroke="#263238" stroke-miterlimit="10" stroke-linecap="round" stroke-linejoin="round"/>
<path d="M548 431.949C549.519 431.949 550.75 430.718 550.75 429.199C550.75 427.68 549.519 426.449 548 426.449C546.481 426.449 545.25 427.68 545.25 429.199C545.25 430.718 546.481 431.949 548 431.949Z" fill="#263238" stroke="#263238" stroke-miterlimit="10" stroke-linecap="round" stroke-linejoin="round"/>
<path d="M578.75 408.699C578.75 408.699 603.5 421.199 604 423.949C604.5 426.699 604 430.199 604 430.199L603.125 429.324L600.75 423.699L578.5 413.199L578.75 408.699Z" fill="white" stroke="#263238" stroke-miterlimit="10" stroke-linecap="round" stroke-linejoin="round"/>
<path d="M602.25 431.949C603.769 431.949 605 430.718 605 429.199C605 427.68 603.769 426.449 602.25 426.449C600.731 426.449 599.5 427.68 599.5 429.199C599.5 430.718 600.731 431.949 602.25 431.949Z" fill="#263238" stroke="#263238" stroke-miterlimit="10" stroke-linecap="round" stroke-linejoin="round"/>
<path d="M576.75 367.949H572.75V411.449H576.75V367.949Z" fill="white" stroke="#263238" stroke-miterlimit="10" stroke-linecap="round" stroke-linejoin="round"/>
<path d="M580.75 372.199H569V380.199H580.75V372.199Z" fill="#263238" stroke="#263238" stroke-miterlimit="10" stroke-linecap="round" stroke-linejoin="round"/>
<path d="M602.792 364.145C594.136 363.238 566.243 360.818 541.242 364.169C540.293 364.296 539.926 365.473 540.623 366.13C543.28 368.638 550.655 373.2 569.751 374.449C589.483 375.74 599.557 369.685 603.485 366.419C604.363 365.688 603.929 364.264 602.792 364.145Z" fill="white" stroke="#263238" stroke-miterlimit="10" stroke-linecap="round" stroke-linejoin="round"/>
<path d="M540.599 366.106C540.615 366.121 540.631 366.136 540.647 366.152C540.853 366.345 541.131 366.449 541.414 366.449H603.444C603.458 366.437 603.472 366.426 603.486 366.414C604.36 365.686 603.917 364.263 602.785 364.144C594.122 363.237 566.235 360.818 541.239 364.169C540.307 364.294 539.917 365.459 540.599 366.106Z" fill="#74423C" stroke="#263238" stroke-miterlimit="10" stroke-linecap="round" stroke-linejoin="round"/>
<path d="M579.5 404.699H570.25V414.449H579.5V404.699Z" fill="#263238" stroke="#263238" stroke-miterlimit="10" stroke-linecap="round" stroke-linejoin="round"/>
<path d="M575.25 409.574H573.875V431.949H575.25V409.574Z" fill="white" stroke="#263238" stroke-miterlimit="10" stroke-linecap="round" stroke-linejoin="round"/>
<path d="M575.764 426.113H573.342V431.973H575.764V426.113Z" fill="#263238" stroke="#263238" stroke-miterlimit="10" stroke-linecap="round" stroke-linejoin="round"/>
<path d="M584.25 366.449H578.75L575.25 332.949H579L584.25 366.449Z" fill="white" stroke="#263238" stroke-miterlimit="10" stroke-linecap="round" stroke-linejoin="round"/>
<path d="M593.75 335.199H556C556 335.199 558.75 330.199 560.5 329.699C562.25 329.199 590.75 329.699 590.75 329.699C590.75 329.699 593.75 330.699 593.75 335.199Z" fill="#74423C" stroke="#263238" stroke-miterlimit="10" stroke-linecap="round" stroke-linejoin="round"/>
<path d="M556 335.199H593.75C593.75 334.744 593.713 334.335 593.658 333.949H556.738C556.29 334.673 556 335.199 556 335.199Z" fill="white" stroke="#263238" stroke-miterlimit="10" stroke-linecap="round" stroke-linejoin="round"/>
<path d="M416.109 279.445H365.072C361.63 279.445 358.867 282.287 358.965 285.728L360.787 350.028L358.787 364.231H422.484L419.484 350.028L422.213 285.814C422.361 282.341 419.585 279.445 416.109 279.445Z" fill="white" stroke="#263238" stroke-miterlimit="10" stroke-linecap="round" stroke-linejoin="round"/>
<path d="M413.781 283.319H367.408C364.28 283.319 361.77 286.017 361.859 289.283L363.515 350.319L361.698 363.801H419.575L416.849 350.319L419.329 289.365C419.462 286.068 416.94 283.319 413.781 283.319Z" fill="#74423C" stroke="#263238" stroke-miterlimit="10" stroke-linecap="round" stroke-linejoin="round"/>
<path d="M358.5 333.633L355.25 363.133H358L361.25 333.633H358.5Z" fill="white" stroke="#263238" stroke-miterlimit="10" stroke-linecap="round" stroke-linejoin="round"/>
<path d="M422.5 333.633L425.75 363.133H423L419.75 333.633H422.5Z" fill="white" stroke="#263238" stroke-miterlimit="10" stroke-linecap="round" stroke-linejoin="round"/>
<path d="M363.167 334.104H356.832C356.204 334.104 355.696 333.595 355.696 332.968V329.215C355.696 328.587 356.205 328.079 356.832 328.079H363.167C363.795 328.079 364.304 328.588 364.304 329.215V332.968C364.304 333.595 363.795 334.104 363.167 334.104Z" fill="white" stroke="#263238" stroke-miterlimit="10" stroke-linecap="round" stroke-linejoin="round"/>
<path d="M363.167 328.079H356.832C356.204 328.079 355.696 328.588 355.696 329.215V332.635H364.304V329.215C364.304 328.588 363.795 328.079 363.167 328.079Z" fill="#74423C" stroke="#263238" stroke-miterlimit="10" stroke-linecap="round" stroke-linejoin="round"/>
<path d="M424.342 334.104H418.007C417.379 334.104 416.87 333.595 416.87 332.968V329.215C416.87 328.587 417.379 328.079 418.007 328.079H424.342C424.97 328.079 425.478 328.588 425.478 329.215V332.968C425.478 333.595 424.969 334.104 424.342 334.104Z" fill="white" stroke="#263238" stroke-miterlimit="10" stroke-linecap="round" stroke-linejoin="round"/>
<path d="M424.342 328.079H418.007C417.379 328.079 416.87 328.588 416.87 329.215V332.635H425.478V329.215C425.478 328.588 424.969 328.079 424.342 328.079Z" fill="#74423C" stroke="#263238" stroke-miterlimit="10" stroke-linecap="round" stroke-linejoin="round"/>
<path d="M389.548 407.384C389.548 407.384 364.798 419.884 364.298 422.634C363.798 425.384 364.298 428.884 364.298 428.884L365.173 428.009L367.548 422.384L389.798 411.884L389.548 407.384Z" fill="white" stroke="#263238" stroke-miterlimit="10" stroke-linecap="round" stroke-linejoin="round"/>
<path d="M366.048 430.634C367.567 430.634 368.798 429.403 368.798 427.884C368.798 426.365 367.567 425.134 366.048 425.134C364.529 425.134 363.298 426.365 363.298 427.884C363.298 429.403 364.529 430.634 366.048 430.634Z" fill="#263238" stroke="#263238" stroke-miterlimit="10" stroke-linecap="round" stroke-linejoin="round"/>
<path d="M396.798 407.384C396.798 407.384 421.548 419.884 422.048 422.634C422.548 425.384 422.048 428.884 422.048 428.884L421.173 428.009L418.798 422.384L396.548 411.884L396.798 407.384Z" fill="white" stroke="#263238" stroke-miterlimit="10" stroke-linecap="round" stroke-linejoin="round"/>
<path d="M420.298 430.634C421.817 430.634 423.048 429.403 423.048 427.884C423.048 426.365 421.817 425.134 420.298 425.134C418.779 425.134 417.548 426.365 417.548 427.884C417.548 429.403 418.779 430.634 420.298 430.634Z" fill="#263238" stroke="#263238" stroke-miterlimit="10" stroke-linecap="round" stroke-linejoin="round"/>
<path d="M394.798 366.634H390.798V410.134H394.798V366.634Z" fill="white" stroke="#263238" stroke-miterlimit="10" stroke-linecap="round" stroke-linejoin="round"/>
<path d="M398.798 370.884H387.048V378.884H398.798V370.884Z" fill="#263238" stroke="#263238" stroke-miterlimit="10" stroke-linecap="round" stroke-linejoin="round"/>
<path d="M425.549 362.845C415.828 361.953 383.708 359.495 354.865 362.827C353.743 362.957 353.366 364.387 354.261 365.076C357.575 367.628 366.204 371.926 387.406 373.133C410.079 374.424 421.656 368.371 426.171 365.105C427.109 364.427 426.702 362.951 425.549 362.845Z" fill="white" stroke="#263238" stroke-miterlimit="10" stroke-linecap="round" stroke-linejoin="round"/>
<path d="M354.237 365.056C354.27 365.082 354.304 365.108 354.339 365.134H426.128C426.144 365.122 426.161 365.111 426.177 365.099C427.109 364.424 426.694 362.951 425.548 362.846C415.825 361.954 383.708 359.497 354.869 362.828C353.762 362.955 353.356 364.374 354.237 365.056Z" fill="#74423C" stroke="#263238" stroke-miterlimit="10" stroke-linecap="round" stroke-linejoin="round"/>
<path d="M397.548 403.384H388.298V413.134H397.548V403.384Z" fill="#263238" stroke="#263238" stroke-miterlimit="10" stroke-linecap="round" stroke-linejoin="round"/>
<path d="M393.298 408.259H391.923V430.634H393.298V408.259Z" fill="white" stroke="#263238" stroke-miterlimit="10" stroke-linecap="round" stroke-linejoin="round"/>
<path d="M393.812 424.798H391.39V430.658H393.812V424.798Z" fill="#263238" stroke="#263238" stroke-miterlimit="10" stroke-linecap="round" stroke-linejoin="round"/>
<path d="M372.044 320.315L366.404 342.807C366.404 342.807 357.082 352.359 356.25 357.77C355.418 363.18 377.887 413.305 377.887 413.305L387.459 412.057L382.049 361.979L399.112 361.563L398.937 412.057L408.509 413.305L424.369 363.891C424.369 363.891 426.146 357.967 424.764 354.611C422.108 348.16 414.257 342.834 414.257 342.834L406.512 320.316L372.044 320.315Z" fill="#263238" stroke="#263238" stroke-miterlimit="10" stroke-linecap="round" stroke-linejoin="round"/>
<path d="M377.887 413.306C377.887 413.306 377.825 418.123 376.806 422.198C375.787 426.273 372.986 429.329 374.259 430.858C375.532 432.386 382.664 432.131 385.211 431.367C387.758 430.603 389.286 428.311 389.286 424.49C389.286 420.669 387.459 412.057 387.459 412.057L377.887 413.306Z" fill="white" stroke="#263238" stroke-miterlimit="10" stroke-linecap="round" stroke-linejoin="round"/>
<path d="M374.259 430.857C375.532 432.385 382.664 432.13 385.211 431.366C387.758 430.602 389.286 428.31 389.286 424.489C389.286 423.438 389.145 422.02 388.945 420.522C388.328 422.349 386.994 424.058 384.192 424.489C379.388 425.228 377.004 424.762 376.054 424.449C374.853 427.4 373.233 429.625 374.259 430.857Z" fill="#74423C" stroke="#263238" stroke-miterlimit="10" stroke-linecap="round" stroke-linejoin="round"/>
<path d="M408.509 413.306C408.509 413.306 408.571 418.123 409.59 422.198C410.609 426.273 413.41 429.329 412.137 430.858C410.864 432.386 403.732 432.131 401.185 431.367C398.638 430.603 397.11 428.311 397.11 424.49C397.11 420.669 398.937 412.057 398.937 412.057L408.509 413.306Z" fill="white" stroke="#263238" stroke-miterlimit="10" stroke-linecap="round" stroke-linejoin="round"/>
<path d="M412.137 430.857C410.864 432.385 403.732 432.13 401.185 431.366C398.638 430.602 397.11 428.31 397.11 424.489C397.11 423.438 397.251 422.02 397.451 420.522C398.068 422.349 399.402 424.058 402.204 424.489C407.008 425.228 409.392 424.762 410.342 424.449C411.543 427.4 413.163 429.625 412.137 430.857Z" fill="#74423C" stroke="#263238" stroke-miterlimit="10" stroke-linecap="round" stroke-linejoin="round"/>
<path d="M378.77 267.748C378.77 267.748 363.007 272.582 361.535 274.474C360.064 276.366 340.097 304.526 337.154 307.678C334.212 310.831 333.581 314.404 333.791 315.875C334.001 317.346 336.103 320.919 336.103 320.919H344.72L350.815 311.671L365.87 295.801L372.043 320.315H406.512L411.651 294.909C411.651 294.909 422.485 313.352 422.695 313.983C422.905 314.613 426.058 320.078 431.943 319.658C437.828 319.238 436.987 311.461 434.255 304.946C431.523 298.431 420.804 276.366 417.651 273.423C414.498 270.481 397.474 266.697 397.474 266.697L378.77 267.748Z" fill="#74423C" stroke="#263238" stroke-miterlimit="10" stroke-linecap="round" stroke-linejoin="round"/>
<path d="M421.136 313.041C421.136 313.041 418.393 312.687 422.994 309.856C427.595 307.025 433.965 307.113 436 307.556C438.035 307.998 438.389 309.326 439.539 312.245C440.689 315.165 440.158 317.819 438.92 319.058C437.681 320.297 437.858 320.828 433.7 319.766C429.542 318.704 425.206 316.315 423.348 315.165C421.49 314.014 421.136 313.041 421.136 313.041Z" fill="white" stroke="#263238" stroke-miterlimit="10" stroke-linecap="round" stroke-linejoin="round"/>
<path d="M421.568 313.608C421.568 313.608 429.099 311.095 431.93 310.387C434.761 309.679 437.77 311.803 438.477 315.165C439.185 318.527 438.123 321.712 434.495 322.509C430.867 323.305 427.24 322.244 425.205 321.005C423.17 319.766 419.72 317.908 419.72 317.908L421.568 313.608Z" fill="white" stroke="#263238" stroke-miterlimit="10" stroke-linecap="round" stroke-linejoin="round"/>
<path d="M413.792 313.218C413.792 313.218 411.58 314.103 411.138 314.368C410.696 314.634 408.572 316.934 407.245 317.465C405.918 317.996 403.971 317.996 405.475 319.5C406.979 321.004 408.837 319.854 409.722 319.235C410.607 318.616 411.934 317.908 412.288 317.908C412.642 317.908 414.323 318.173 414.677 318.262C415.031 318.351 420.517 319.766 421.932 320.12C423.348 320.474 424.144 320.739 425.117 318.97C426.09 317.2 424.586 314.723 423.436 313.927C422.286 313.129 413.792 313.218 413.792 313.218Z" fill="white" stroke="#263238" stroke-miterlimit="10" stroke-linecap="round" stroke-linejoin="round"/>
<path d="M416.391 311.882C416.391 311.882 413.448 311.041 413.448 312.092C413.448 313.143 412.607 320.079 414.499 319.448C416.391 318.817 416.391 311.882 416.391 311.882Z" fill="white" stroke="#263238" stroke-miterlimit="10" stroke-linecap="round" stroke-linejoin="round"/>
<path d="M416.391 311.882C416.391 311.882 414.71 319.238 415.971 319.448C417.232 319.658 418.703 314.404 418.913 312.722C419.124 311.041 417.022 311.041 416.391 311.882Z" fill="white" stroke="#263238" stroke-miterlimit="10" stroke-linecap="round" stroke-linejoin="round"/>
<path d="M419.046 312.766C419.046 312.766 417.365 320.122 418.626 320.332C419.887 320.542 421.358 315.288 421.569 313.606C421.778 311.925 419.676 311.925 419.046 312.766Z" fill="white" stroke="#263238" stroke-miterlimit="10" stroke-linecap="round" stroke-linejoin="round"/>
<path d="M421.899 314.501C421.899 314.501 420.176 320.216 421.468 320.379C422.76 320.542 424.267 316.46 424.483 315.154C424.698 313.848 422.545 313.848 421.899 314.501Z" fill="white" stroke="#263238" stroke-miterlimit="10" stroke-linecap="round" stroke-linejoin="round"/>
<path d="M334.419 311.801C334.419 311.801 334.995 308.203 336.002 306.476C337.009 304.749 339.887 304.174 341.614 303.454C343.341 302.734 348.378 304.749 350.105 306.62C351.832 308.491 352.264 311.081 351.688 312.952C351.112 314.823 348.09 316.55 347.659 316.55C347.228 316.55 344.493 312.089 341.903 311.801C339.312 311.513 334.419 311.801 334.419 311.801Z" fill="white" stroke="#263238" stroke-miterlimit="10" stroke-linecap="round" stroke-linejoin="round"/>
<path d="M334.419 311.802C334.419 311.802 335.858 306.765 341.902 306.765C347.946 306.765 348.953 312.665 348.953 313.96C348.953 315.255 347.226 320.436 345.931 320.868C344.636 321.3 337.355 321.691 336.103 320.92C334.851 320.148 333.124 314.536 334.419 311.802Z" fill="white" stroke="#263238" stroke-miterlimit="10" stroke-linecap="round" stroke-linejoin="round"/>
<path d="M348.522 318.133C348.522 318.133 349.817 319.284 352.839 319.86C355.861 320.436 357.732 321.155 355.717 321.875C353.702 322.595 351.688 322.307 350.68 322.163C349.673 322.019 348.233 321.443 348.233 321.443L348.522 318.133Z" fill="white" stroke="#263238" stroke-miterlimit="10" stroke-linecap="round" stroke-linejoin="round"/>
<path d="M344.061 314.391C344.061 314.391 347.371 315.974 348.522 318.133C349.673 320.292 349.673 322.45 349.673 322.45H343.629L344.061 314.391Z" fill="white" stroke="#263238" stroke-miterlimit="10" stroke-linecap="round" stroke-linejoin="round"/>
<path d="M342.91 312.952C342.91 312.952 341.039 312.376 340.464 313.384C339.888 314.391 332.405 317.701 332.261 319.14C332.117 320.579 332.117 322.594 333.556 322.882C334.995 323.17 344.781 323.026 345.212 322.738C345.644 322.45 344.061 314.967 344.061 314.391C344.061 313.815 343.774 312.952 342.91 312.952Z" fill="white" stroke="#263238" stroke-miterlimit="10" stroke-linecap="round" stroke-linejoin="round"/>
<path d="M340.464 314.103L341.759 322.45" stroke="#263238" stroke-miterlimit="10" stroke-linecap="round" stroke-linejoin="round"/>
<path d="M336.722 315.974L338.305 322.738" stroke="#263238" stroke-miterlimit="10" stroke-linecap="round" stroke-linejoin="round"/>
<path d="M334.132 317.413L335.427 322.162" stroke="#263238" stroke-miterlimit="10" stroke-linecap="round" stroke-linejoin="round"/>
<path d="M372.519 237.671C372.519 237.671 367.894 254.014 368.202 258.948C368.51 263.882 382.387 270.049 391.021 271.283C399.655 272.516 411.682 262.34 412.607 258.948C413.532 255.556 413.224 245.688 410.14 238.904C407.056 232.12 400.889 220.402 393.488 220.094C386.087 219.786 375.602 223.486 372.519 237.671Z" fill="#263238" stroke="#263238" stroke-miterlimit="10" stroke-linecap="round" stroke-linejoin="round"/>
<path d="M386.546 263.545C386.546 263.545 380.241 264.386 380.241 265.226C380.241 266.066 377.719 267.958 377.719 267.958L379.821 284.142L392.221 276.996L402.94 284.562L403.36 268.799L397.055 263.545H386.546Z" fill="white" stroke="#263238" stroke-miterlimit="10" stroke-linecap="round" stroke-linejoin="round"/>
<path d="M382.763 259.341L382.133 270.271L391.17 283.512L399.157 270.271L398.316 259.762L382.763 259.341Z" fill="white" stroke="#263238" stroke-miterlimit="10" stroke-linecap="round" stroke-linejoin="round"/>
<path d="M378.98 247.361C378.98 247.361 385.706 241.896 389.489 239.795C393.272 237.693 395.164 231.808 395.164 231.808C395.164 231.808 395.795 237.693 397.896 240.005C399.998 242.317 401.469 245.68 401.469 245.68L402.31 247.572C402.31 247.572 402.52 258.291 402.1 258.922C401.68 259.552 396.425 265.858 394.113 266.278C391.801 266.698 389.069 266.488 387.808 265.437C386.547 264.386 380.872 259.972 380.452 258.501C380.031 257.03 378.98 247.361 378.98 247.361Z" fill="white" stroke="#263238" stroke-miterlimit="10" stroke-linecap="round" stroke-linejoin="round"/>
<path d="M386.542 249.379C386.542 250.145 386.18 250.767 385.732 250.767C385.285 250.767 384.923 250.146 384.923 249.379C384.923 248.612 385.285 247.991 385.732 247.991C386.18 247.991 386.542 248.612 386.542 249.379Z" fill="#263238"/>
<path d="M395.794 250.767C396.242 250.767 396.604 250.146 396.604 249.379C396.604 248.613 396.242 247.991 395.794 247.991C395.347 247.991 394.984 248.613 394.984 249.379C394.984 250.146 395.347 250.767 395.794 250.767Z" fill="#263238"/>
<path d="M389.086 256.78C389.086 256.78 391.862 258.168 393.712 256.78" stroke="#263238" stroke-miterlimit="10" stroke-linecap="round" stroke-linejoin="round"/>
<path d="M388.161 259.556C388.161 259.556 392.093 260.944 394.638 259.325" stroke="#263238" stroke-miterlimit="10" stroke-linecap="round" stroke-linejoin="round"/>
<path d="M382.841 247.067C382.841 247.067 383.997 244.985 387.005 245.448" stroke="#263238" stroke-miterlimit="10" stroke-linecap="round" stroke-linejoin="round"/>
<path d="M394.638 245.679C394.638 245.679 396.257 244.522 398.339 246.836" stroke="#263238" stroke-miterlimit="10" stroke-linecap="round" stroke-linejoin="round"/>
<path d="M260.75 358.037L268.5 416.537L258 417.537L249 384.787L260.75 358.037Z" fill="#263238" stroke="#263238" stroke-miterlimit="10" stroke-linecap="round" stroke-linejoin="round"/>
<path d="M213.5 336.787C213.5 336.787 257.5 342.537 263.25 346.037C269 349.537 264.25 355.537 264.25 356.537C264.25 357.537 248.25 417.787 248.25 417.787L236.5 415.287L241.75 360.537L230.25 361.537C230.25 361.537 188 361.287 181.75 359.287C175.5 357.287 174.75 346.537 176 342.537C177.25 338.537 177 337.537 177 337.537L213.5 336.787Z" fill="#263238" stroke="#263238" stroke-miterlimit="10" stroke-linecap="round" stroke-linejoin="round"/>
<path d="M207.275 309.888L241.463 314.054L252.164 310.884C252.164 310.884 262.528 315.347 261.011 316.737C259.493 318.127 254.169 314.978 254.169 314.978C254.169 314.978 248.173 321.132 245.804 320.003C243.435 318.874 240.891 318.762 240.891 318.762L210.549 320.802L207.275 309.888Z" fill="#263238" stroke="#263238" stroke-miterlimit="10" stroke-linecap="round" stroke-linejoin="round"/>
<path d="M184.75 264.038C184.75 264.038 175.75 272.788 174 280.288C172.25 287.788 172.5 295.288 172.75 296.288C173 297.288 176.25 335.288 177 337.538C177.75 339.788 188.25 341.038 194.5 341.038C200.75 341.038 211.5 339.038 213.5 336.788C215.5 334.538 214.5 326.038 212.75 322.038C211 318.038 203.75 281.538 203.25 277.288C202.75 273.038 202.5 272.288 199.5 269.038C196.5 265.788 190 262.538 184.75 264.038Z" fill="#74423C" stroke="#263238" stroke-miterlimit="10" stroke-linecap="round" stroke-linejoin="round"/>
<path d="M208.75 226.537C208.75 226.537 213.25 231.287 213.25 233.787C213.25 236.287 212.25 239.287 212.5 240.037C212.75 240.787 216.25 244.537 216.25 245.787C216.25 247.037 214 248.787 214 248.787C214 248.787 212.75 256.037 211.75 257.787C210.75 259.537 202.75 260.037 202.75 260.037L198.25 268.537L186.25 262.037L187.75 252.037C187.75 252.037 180.5 239.287 179.25 232.787C178 226.287 185.5 220.287 187.25 220.287C189 220.287 190.5 219.537 190.5 219.537C190.5 219.537 189.25 217.787 190.75 217.537C192.25 217.287 196.75 218.537 196.75 218.537C196.75 218.537 192.75 214.537 200.25 215.537C207.75 216.537 215.5 224.037 208.75 226.537Z" fill="white" stroke="#263238" stroke-miterlimit="10" stroke-linecap="round" stroke-linejoin="round"/>
<path d="M207.426 259.573C207.426 259.573 206.258 259.184 204.117 258.989C201.976 258.794 198.861 257.237 198.861 257.237L201.197 262.104L202.75 260.038L207.426 259.573Z" fill="#263238" stroke="#263238" stroke-miterlimit="10" stroke-linecap="round" stroke-linejoin="round"/>
<path d="M208.75 226.537C215.5 224.037 207.75 216.537 200.25 215.537C192.75 214.537 196.75 218.537 196.75 218.537C196.75 218.537 192.25 217.287 190.75 217.537C189.25 217.787 190.5 219.537 190.5 219.537C190.5 219.537 189 220.287 187.25 220.287C185.5 220.287 178 226.287 179.25 232.787C180.422 238.88 186.865 250.464 187.668 251.891C189.146 251.106 190.494 249.682 190 248.037C189.25 245.537 191.75 240.787 191.75 240.787C191.75 240.787 192.75 242.537 194 243.537C195.25 244.537 196 243.537 196 243.537L195.5 239.537C195.5 239.537 197.5 236.287 200.25 234.287C203 232.287 196.75 232.037 196.25 230.287C195.75 228.537 208.75 226.537 208.75 226.537Z" fill="#263238" stroke="#263238" stroke-miterlimit="10" stroke-linecap="round" stroke-linejoin="round"/>
<path d="M195 244.037C195 244.037 192.5 239.787 190.5 240.787C188.5 241.787 189.25 248.787 191.75 249.037C194.25 249.287 195.5 248.537 195.5 248.537" fill="white"/>
<path d="M195 244.037C195 244.037 192.5 239.787 190.5 240.787C188.5 241.787 189.25 248.787 191.75 249.037C194.25 249.287 195.5 248.537 195.5 248.537" stroke="#263238" stroke-miterlimit="10" stroke-linecap="round" stroke-linejoin="round"/>
<path d="M209.375 241.537C209.858 241.537 210.25 240.81 210.25 239.912C210.25 239.015 209.858 238.287 209.375 238.287C208.892 238.287 208.5 239.015 208.5 239.912C208.5 240.81 208.892 241.537 209.375 241.537Z" fill="#263238"/>
<path d="M207 237.537C207 237.537 208.75 235.287 211 236.537" stroke="#263238" stroke-miterlimit="10" stroke-linecap="round" stroke-linejoin="round"/>
<path d="M208 249.287C208 249.287 209.5 250.787 211.75 250.787" stroke="#263238" stroke-miterlimit="10" stroke-linecap="round" stroke-linejoin="round"/>
<path d="M184.75 258.787L182.25 263.787L200.75 272.287L202 265.787L184.75 258.787Z" fill="#74423C" stroke="#263238" stroke-miterlimit="10" stroke-linecap="round" stroke-linejoin="round"/>
<path d="M248.25 417.787L252.25 426.037C252.25 426.037 261.75 429.537 261.5 431.037C261.25 432.537 249.75 431.787 249.75 431.787C249.75 431.787 233.5 428.787 233.25 426.537C233 424.287 236.5 415.287 236.5 415.287L248.25 417.787Z" fill="white" stroke="#263238" stroke-miterlimit="10" stroke-linecap="round" stroke-linejoin="round"/>
<path d="M268.5 416.537C268.5 416.537 276.5 420.287 277.25 420.787C278 421.287 286.75 423.537 287.5 423.787C288.25 424.037 288.5 425.787 288.5 425.787C288.5 425.787 274.25 428.787 273.25 428.787C272.25 428.787 265.25 428.037 263.5 428.037C261.75 428.037 257.25 428.037 257.25 428.037L258 417.537L268.5 416.537Z" fill="white" stroke="#263238" stroke-miterlimit="10" stroke-linecap="round" stroke-linejoin="round"/>
<path d="M181.75 287.038C181.75 287.038 189.25 327.538 191.75 328.788C194.25 330.038 241.945 321.018 241.945 321.018L241.547 315.276L202.499 313.538C202.499 313.538 199.249 277.038 195.499 272.538C191.749 268.038 183.999 268.538 182.499 271.788" fill="#74423C"/>
<path d="M181.75 287.038C181.75 287.038 189.25 327.538 191.75 328.788C194.25 330.038 241.945 321.018 241.945 321.018L241.547 315.276L202.499 313.538C202.499 313.538 199.249 277.038 195.499 272.538C191.749 268.038 183.999 268.538 182.499 271.788" stroke="#263238" stroke-miterlimit="10" stroke-linecap="round" stroke-linejoin="round"/>
<path d="M241.548 315.276C241.548 315.276 253.268 312.357 254.884 312.428C256.5 312.499 264.622 317.984 264.586 318.792C264.55 319.6 262.396 319.505 262.396 319.505L258.638 319.069L254.634 318.083C254.634 318.083 251.435 320.792 249.82 320.721C248.204 320.65 245.804 320.004 245.804 320.004L241.946 321.018L241.548 315.276Z" fill="white" stroke="#263238" stroke-miterlimit="10" stroke-linecap="round" stroke-linejoin="round"/>
<path d="M157.75 278.287L162.25 278.037C162.25 278.037 173.75 311.287 175.25 323.787C176.75 336.287 176.25 346.787 175.5 350.287C174.75 353.787 170.75 360.537 170.75 360.537L166 362.037C166 362.037 171 348.287 171.25 344.537C171.5 340.787 170.855 325.908 170.5 324.037C167.75 309.537 157.75 278.287 157.75 278.287Z" fill="white" stroke="#263238" stroke-miterlimit="10" stroke-linecap="round" stroke-linejoin="round"/>
<path d="M198 405.787C198 405.787 222.75 418.287 223.25 421.037C223.75 423.787 223.25 427.287 223.25 427.287L222.375 426.412L220 420.787L197.75 410.287L198 405.787Z" fill="white" stroke="#263238" stroke-miterlimit="10" stroke-linecap="round" stroke-linejoin="round"/>
<path d="M221.5 429.037C223.019 429.037 224.25 427.806 224.25 426.287C224.25 424.768 223.019 423.537 221.5 423.537C219.981 423.537 218.75 424.768 218.75 426.287C218.75 427.806 219.981 429.037 221.5 429.037Z" fill="#263238" stroke="#263238" stroke-miterlimit="10" stroke-linecap="round" stroke-linejoin="round"/>
<path d="M190.75 405.787C190.75 405.787 166 418.287 165.5 421.037C165 423.787 165.5 427.287 165.5 427.287L166.375 426.412L168.75 420.787L191 410.287L190.75 405.787Z" fill="white" stroke="#263238" stroke-miterlimit="10" stroke-linecap="round" stroke-linejoin="round"/>
<path d="M167.25 429.037C168.769 429.037 170 427.806 170 426.287C170 424.768 168.769 423.537 167.25 423.537C165.731 423.537 164.5 424.768 164.5 426.287C164.5 427.806 165.731 429.037 167.25 429.037Z" fill="#263238" stroke="#263238" stroke-miterlimit="10" stroke-linecap="round" stroke-linejoin="round"/>
<path d="M192.75 408.538H196.75V365.038H192.75V408.538Z" fill="white" stroke="#263238" stroke-miterlimit="10" stroke-linecap="round" stroke-linejoin="round"/>
<path d="M188.75 377.288H200.5V369.288H188.75V377.288Z" fill="#263238" stroke="#263238" stroke-miterlimit="10" stroke-linecap="round" stroke-linejoin="round"/>
<path d="M166.55 361.251C175.046 360.355 203.279 357.871 228.495 361.29C229.329 361.403 229.676 362.431 229.079 363.025C226.603 365.484 219.351 370.256 199.75 371.539C179.815 372.843 169.738 366.65 165.897 363.41C165.07 362.71 165.473 361.364 166.55 361.251Z" fill="white" stroke="#263238" stroke-miterlimit="10" stroke-linecap="round" stroke-linejoin="round"/>
<path d="M228.565 363.502L228.525 363.537H166.056C165.999 363.49 165.944 363.444 165.89 363.398C165.067 362.703 165.486 361.362 166.557 361.249C174.989 360.36 202.808 357.912 227.853 361.203C228.968 361.35 229.409 362.759 228.565 363.502Z" fill="#74423C" stroke="#263238" stroke-miterlimit="10" stroke-linecap="round" stroke-linejoin="round"/>
<path d="M190 411.538H199.25V401.788H190V411.538Z" fill="#263238" stroke="#263238" stroke-miterlimit="10" stroke-linecap="round" stroke-linejoin="round"/>
<path d="M194.25 429.038H195.625V406.663H194.25V429.038Z" fill="white" stroke="#263238" stroke-miterlimit="10" stroke-linecap="round" stroke-linejoin="round"/>
<path d="M193.736 429.062H196.158V423.202H193.736V429.062Z" fill="#263238" stroke="#263238" stroke-miterlimit="10" stroke-linecap="round" stroke-linejoin="round"/>
<path d="M185.25 363.537H190.75L194.25 330.037H190.5L185.25 363.537Z" fill="white" stroke="#263238" stroke-miterlimit="10" stroke-linecap="round" stroke-linejoin="round"/>
<path d="M175.75 332.287H213.5C213.5 332.287 210.75 327.287 209 326.787C207.25 326.287 178.75 326.787 178.75 326.787C178.75 326.787 175.75 327.787 175.75 332.287Z" fill="#74423C" stroke="#263238" stroke-miterlimit="10" stroke-linecap="round" stroke-linejoin="round"/>
<path d="M213.5 332.287H175.75C175.75 331.832 175.787 331.423 175.842 331.037H212.761C213.21 331.762 213.5 332.287 213.5 332.287Z" fill="white" stroke="#263238" stroke-miterlimit="10" stroke-linecap="round" stroke-linejoin="round"/>
<path d="M365.348 323.064H421.585V321.093H365.348V323.064Z" fill="white" stroke="#263238" stroke-miterlimit="10" stroke-linecap="round" stroke-linejoin="round"/>
<path d="M420.922 316.235H361.552C359.479 316.235 357.799 314.555 357.799 312.482V262.129C357.799 260.056 359.479 258.376 361.552 258.376H420.922C422.995 258.376 424.675 260.057 424.675 262.129V312.482C424.675 314.555 422.995 316.235 420.922 316.235Z" fill="white" stroke="#263238" stroke-miterlimit="10" stroke-linecap="round" stroke-linejoin="round"/>
<path d="M396.632 289.976H385.841V323.023H396.632V289.976Z" fill="#263238" stroke="#263238" stroke-miterlimit="10" stroke-linecap="round" stroke-linejoin="round"/>
<path d="M545.383 321.142H513.947V323.016H545.383V321.142Z" fill="white" stroke="#263238" stroke-miterlimit="10" stroke-linecap="round" stroke-linejoin="round"/>
<path d="M495.002 322.6H481.293C478.876 322.6 476.883 320.709 476.755 318.295C476.729 317.785 476.787 317.279 476.929 316.79L485.523 292.084C485.705 291.562 486.278 291.285 486.795 291.468C487.317 291.65 487.593 292.219 487.411 292.74L478.834 317.396C478.77 317.621 478.738 317.905 478.753 318.19C478.824 319.541 479.941 320.599 481.293 320.599H495.002C495.555 320.599 496.002 321.046 496.002 321.599C496.002 322.152 495.555 322.6 495.002 322.6Z" fill="#263238" stroke="#263238" stroke-miterlimit="10" stroke-linecap="round" stroke-linejoin="round"/>
<path d="M491.463 258.27L506.606 316.249L504.949 317.492C504.949 317.492 485.891 302.577 485.891 290.148C485.891 277.719 489.205 258.661 489.205 258.661L491.463 258.27Z" fill="white" stroke="#263238" stroke-miterlimit="10" stroke-linecap="round" stroke-linejoin="round"/>
<path d="M491.463 258.27L489.205 258.661L504.949 317.492L506.606 316.249L491.463 258.27Z" fill="#263238" stroke="#263238" stroke-miterlimit="10" stroke-linecap="round" stroke-linejoin="round"/>
<path d="M244.749 323.016H276.185V321.142H244.749V323.016Z" fill="white" stroke="#263238" stroke-miterlimit="10" stroke-linecap="round" stroke-linejoin="round"/>
<path d="M295.13 322.6H308.839C311.256 322.6 313.249 320.709 313.377 318.295C313.403 317.785 313.345 317.279 313.203 316.79L304.609 292.084C304.427 291.562 303.854 291.285 303.337 291.468C302.814 291.65 302.539 292.219 302.721 292.74L311.298 317.396C311.362 317.621 311.394 317.905 311.379 318.19C311.308 319.541 310.191 320.599 308.839 320.599H295.13C294.577 320.599 294.13 321.046 294.13 321.599C294.13 322.152 294.577 322.6 295.13 322.6Z" fill="#263238" stroke="#263238" stroke-miterlimit="10" stroke-linecap="round" stroke-linejoin="round"/>
<path d="M298.669 258.27L283.526 316.249L285.183 317.492C285.183 317.492 304.241 302.577 304.241 290.148C304.241 277.719 300.927 258.661 300.927 258.661L298.669 258.27Z" fill="white" stroke="#263238" stroke-miterlimit="10" stroke-linecap="round" stroke-linejoin="round"/>
<path d="M298.669 258.27L300.927 258.661L285.183 317.492L283.526 316.249L298.669 258.27Z" fill="#263238" stroke="#263238" stroke-miterlimit="10" stroke-linecap="round" stroke-linejoin="round"/>
<path d="M240.975 328.454L245.235 339.423C246.746 342.534 247.336 347.824 246.934 351.259L236.94 430.469C236.825 431.381 237.536 432.187 238.455 432.187C239.189 432.187 239.82 431.664 239.955 430.943L259.04 329.512H252.046L250.818 335.346C250.609 336.337 249.221 336.407 248.914 335.442L246.55 328.013L240.975 328.454Z" fill="white" stroke="#263238" stroke-miterlimit="10" stroke-linecap="round" stroke-linejoin="round"/>
<path d="M546.493 328.454L542.233 339.423C540.722 342.534 540.132 347.824 540.534 351.259L550.528 430.469C550.643 431.381 549.932 432.187 549.013 432.187C548.279 432.187 547.648 431.664 547.513 430.943L528.428 329.512H535.423L536.651 335.346C536.86 336.337 538.248 336.407 538.555 335.442L540.919 328.013L546.493 328.454Z" fill="white" stroke="#263238" stroke-miterlimit="10" stroke-linecap="round" stroke-linejoin="round"/>
<path d="M392.166 432.278C390.811 432.278 389.705 431.193 389.68 429.838L387.726 326.541H396.606L394.652 429.838C394.627 431.194 393.521 432.278 392.166 432.278Z" fill="white" stroke="#263238" stroke-miterlimit="10" stroke-linecap="round" stroke-linejoin="round"/>
<path d="M554.5 322.975H233.5V329.475H554.5V322.975Z" fill="white" stroke="#263238" stroke-miterlimit="10" stroke-linecap="round" stroke-linejoin="round"/>
</svg>
