<svg width="800" height="800" viewBox="0 0 800 800" fill="none" xmlns="http://www.w3.org/2000/svg">
<path d="M555.297 200C550.62 173.406 542.957 156.156 528.897 145.721C523.42 141.658 517.287 138.363 510.953 136.08C477.917 124.176 438.563 151.576 359.85 206.377L353.073 211.095C339.843 220.307 333.226 224.914 326.103 228.233C319.062 231.514 311.662 233.859 304.073 235.212C296.396 236.581 288.471 236.581 272.622 236.581C230.096 236.581 208.833 236.581 190.282 245.643C173.333 253.924 156.384 270.763 147.526 288.123C137.831 307.124 136.691 326.878 134.41 366.387C133.735 378.077 133.333 389.463 133.333 400C133.333 410.537 133.735 421.923 134.41 433.613C136.691 473.12 137.831 492.877 147.526 511.877C156.384 529.237 173.333 546.077 190.282 554.357C208.833 563.42 230.096 563.42 272.622 563.42C288.471 563.42 296.396 563.42 304.073 564.787C311.662 566.14 319.062 568.487 326.103 571.767C333.226 575.087 339.843 579.693 353.073 588.907L359.85 593.623C438.563 648.423 477.917 675.823 510.953 663.92C517.287 661.637 523.42 658.343 528.897 654.28C542.957 643.843 550.62 626.593 555.297 600" stroke="#74423C" stroke-width="75" stroke-linecap="round"/>
<path d="M666.667 300.001L466.667 500M466.667 300L666.663 500" stroke="#74423C" stroke-width="75" stroke-linecap="round"/>
</svg>
