<svg width="800" height="800" viewBox="0 0 800 800" fill="none" xmlns="http://www.w3.org/2000/svg">
<path d="M66.667 400.001C66.667 274.293 66.667 211.439 105.719 172.386C144.772 133.334 207.626 133.334 333.334 133.334H466.667C592.374 133.334 655.23 133.334 694.28 172.386C733.334 211.439 733.334 274.293 733.334 400.001C733.334 525.707 733.334 588.564 694.28 627.614C655.23 666.667 592.374 666.667 466.667 666.667H333.334C207.626 666.667 144.772 666.667 105.719 627.614C66.667 588.564 66.667 525.707 66.667 400.001Z" stroke="#74423C" stroke-width="50"/>
<path d="M300 399.999C300 418.409 285.076 433.333 266.667 433.333C248.257 433.333 233.333 418.409 233.333 399.999C233.333 381.589 248.257 366.666 266.667 366.666C285.076 366.666 300 381.589 300 399.999Z" fill="#74423C"/>
<path d="M433.333 399.999C433.333 418.409 418.41 433.333 400 433.333C381.59 433.333 366.667 418.409 366.667 399.999C366.667 381.589 381.59 366.666 400 366.666C418.41 366.666 433.333 381.589 433.333 399.999Z" fill="#74423C"/>
<path d="M566.667 399.999C566.667 418.409 551.743 433.333 533.333 433.333C514.923 433.333 500 418.409 500 399.999C500 381.589 514.923 366.666 533.333 366.666C551.743 366.666 566.667 381.589 566.667 399.999Z" fill="#74423C"/>
</svg>
