<svg width="800" height="800" viewBox="0 0 800 800" fill="none" xmlns="http://www.w3.org/2000/svg">
<path d="M554.316 463.03L569.5 447.934L534.243 412.477L519.063 427.574L554.316 463.03ZM620.486 441.61L684.17 476.23L708.05 432.304L644.366 397.684L620.486 441.61ZM696.43 545.037L649.076 592.12L684.33 627.577L731.683 580.494L696.43 545.037ZM620.223 607.28C571.893 611.784 446.853 607.77 311.472 473.157L276.218 508.614C423.953 655.51 564.563 662.684 624.863 657.064L620.223 607.28ZM311.472 473.157C182.426 344.844 161.05 236.922 158.389 190.102L108.47 192.939C111.819 251.867 138.288 371.467 276.218 508.614L311.472 473.157ZM357.316 267.147L366.876 257.641L331.623 222.185L322.063 231.691L357.316 267.147ZM374.486 136.467L332.455 80.3208L292.428 110.285L334.46 166.432L374.486 136.467ZM191.087 68.1002L138.768 120.123L174.022 155.579L226.342 103.556L191.087 68.1002ZM339.69 249.419C322.063 231.691 322.039 231.715 322.015 231.739C322.007 231.747 321.983 231.771 321.967 231.788C321.934 231.821 321.9 231.854 321.867 231.888C321.799 231.957 321.729 232.029 321.657 232.104C321.513 232.253 321.36 232.415 321.199 232.59C320.878 232.939 320.525 233.338 320.147 233.789C319.391 234.691 318.535 235.801 317.635 237.13C315.83 239.793 313.864 243.314 312.196 247.742C308.792 256.777 306.967 268.687 309.255 283.435C313.729 312.278 333.593 350.377 384.476 400.97L419.73 365.514C372.113 318.167 360.77 289.353 358.663 275.77C357.66 269.306 358.7 266.124 358.986 265.371C359.16 264.905 359.243 264.857 359.03 265.175C358.923 265.331 358.746 265.575 358.47 265.903C358.333 266.067 358.17 266.253 357.98 266.461C357.883 266.564 357.783 266.673 357.67 266.788C357.616 266.845 357.56 266.903 357.5 266.963C357.47 266.993 357.44 267.024 357.41 267.054C357.396 267.07 357.373 267.093 357.363 267.101C357.34 267.124 357.316 267.147 339.69 249.419ZM384.476 400.97C435.376 451.58 473.653 471.277 502.543 475.71C517.306 477.974 529.21 476.167 538.24 472.804C542.666 471.154 546.193 469.21 548.86 467.424C550.193 466.53 551.306 465.68 552.21 464.93C552.663 464.557 553.063 464.207 553.413 463.887C553.59 463.727 553.753 463.577 553.903 463.434C553.98 463.36 554.05 463.29 554.12 463.224C554.153 463.19 554.186 463.157 554.22 463.124C554.236 463.107 554.263 463.084 554.27 463.077C554.293 463.054 554.316 463.03 536.69 445.3C519.063 427.574 519.086 427.55 519.11 427.527C519.116 427.52 519.14 427.497 519.156 427.48C519.186 427.45 519.216 427.42 519.246 427.39C519.31 427.334 519.366 427.277 519.423 427.22C519.54 427.11 519.65 427.01 519.753 426.914C519.96 426.727 520.146 426.564 520.313 426.43C520.64 426.157 520.883 425.984 521.033 425.88C521.343 425.674 521.28 425.767 520.786 425.95C519.97 426.254 516.7 427.297 510.126 426.287C496.35 424.177 467.333 412.844 419.73 365.514L384.476 400.97ZM332.455 80.3208C298.478 34.9345 231.665 27.7528 191.087 68.1002L226.342 103.556C244.065 85.9338 275.541 87.7275 292.428 110.285L332.455 80.3208ZM158.389 190.102C157.733 178.565 163.025 166.514 174.022 155.579L138.768 120.123C120.857 137.932 106.776 163.142 108.47 192.939L158.389 190.102ZM649.076 592.12C639.916 601.23 630.097 606.36 620.223 607.28L624.863 657.064C649.35 654.781 669.413 642.41 684.33 627.577L649.076 592.12ZM366.876 257.641C399.693 225.01 402.133 173.397 374.486 136.467L334.46 166.432C347.91 184.398 345.91 207.98 331.623 222.185L366.876 257.641ZM684.17 476.23C711.43 491.05 715.677 525.897 696.43 545.037L731.683 580.494C776.36 536.071 762.583 461.947 708.05 432.304L684.17 476.23ZM569.5 447.934C582.3 435.207 602.903 432.054 620.486 441.61L644.366 397.684C608.246 378.047 563.42 383.47 534.243 412.477L569.5 447.934Z" fill="#74423C"/>
</svg>
