<svg width="800" height="800" viewBox="0 0 800 800" fill="none" xmlns="http://www.w3.org/2000/svg">
<path d="M511.963 199.667C507.287 173.072 499.623 155.822 485.563 145.388C480.087 141.324 473.953 138.03 467.62 135.747C434.583 123.842 395.23 151.243 316.517 206.043L309.74 210.761C296.51 219.974 289.892 224.58 282.77 227.9C275.729 231.181 268.328 233.525 260.74 234.878C253.063 236.247 245.138 236.247 229.288 236.247C186.762 236.247 165.499 236.247 146.949 245.31C130 253.59 113.051 270.43 104.193 287.79C94.4977 306.79 93.3573 326.545 91.0767 366.053C90.402 377.743 90 389.13 90 399.667C90 410.203 90.402 421.59 91.0767 433.28C93.3573 472.787 94.4977 492.543 104.193 511.543C113.051 528.903 130 545.743 146.949 554.023C165.499 563.087 186.762 563.087 229.288 563.087C245.138 563.087 253.063 563.087 260.74 564.453C268.328 565.807 275.729 568.153 282.77 571.433C289.892 574.753 296.51 579.36 309.74 588.573L316.517 593.29C395.23 648.09 434.583 675.49 467.62 663.587C473.953 661.303 480.087 658.01 485.563 653.947C499.623 643.51 507.287 626.26 511.963 599.667" stroke="#74423C" stroke-width="75" stroke-linecap="round"/>
<path d="M552 466C588.451 466 618 436.451 618 400C618 363.549 588.451 334 552 334" stroke="#74423C" stroke-width="39" stroke-linecap="round"/>
<path d="M584 526C653.588 526 710 469.588 710 400C710 330.412 653.588 274 584 274" stroke="#74423C" stroke-width="39" stroke-linecap="round"/>
</svg>
