<svg width="500" height="500" viewBox="0 0 500 500" fill="none" xmlns="http://www.w3.org/2000/svg">
<path d="M500 382.398H0V382.648H500V382.398Z" fill="#EBEBEB"/>
<path d="M445.259 393.853H394.358V394.103H445.259V393.853Z" fill="#EBEBEB"/>
<path d="M99.667 390.888H52.459V391.138H99.667V390.888Z" fill="#EBEBEB"/>
<path d="M397.999 389.208H378.807V389.458H397.999V389.208Z" fill="#EBEBEB"/>
<path d="M331.22 395.838H317.138V396.088H331.22V395.838Z" fill="#EBEBEB"/>
<path d="M308.234 395.838H272.79V396.088H308.234V395.838Z" fill="#EBEBEB"/>
<path d="M252.208 391.616H195.222V391.866H252.208V391.616Z" fill="#EBEBEB"/>
<path d="M237.014 337.8H43.915C40.768 337.8 38.207 335.239 38.207 332.092V60.6601C38.207 57.5131 40.768 54.9521 43.915 54.9521H237.014C240.16 54.9521 242.721 57.5131 242.721 60.6601V332.092C242.721 335.239 240.16 337.8 237.014 337.8ZM43.915 55.2031C40.905 55.2031 38.457 57.6511 38.457 60.6611V332.093C38.457 335.103 40.905 337.551 43.915 337.551H237.014C240.023 337.551 242.471 335.103 242.471 332.093V60.6601C242.471 57.6511 240.023 55.2021 237.014 55.2021L43.915 55.2031Z" fill="#EBEBEB"/>
<path d="M453.31 337.8H260.212C257.065 337.8 254.505 335.239 254.505 332.092V60.6601C254.505 57.5131 257.066 54.9521 260.212 54.9521H453.31C456.458 54.9521 459.018 57.5131 459.018 60.6601V332.092C459.019 335.239 456.458 337.8 453.31 337.8ZM260.212 55.2031C257.203 55.2031 254.755 57.6511 254.755 60.6611V332.093C254.755 335.103 257.203 337.551 260.212 337.551H453.31C456.32 337.551 458.768 335.103 458.768 332.093V60.6601C458.768 57.6511 456.32 55.2021 453.31 55.2021L260.212 55.2031Z" fill="#EBEBEB"/>
<path d="M390.371 85.667H288.572V382.399H390.371V85.667Z" fill="#EBEBEB"/>
<path d="M383.5 376.398L383.5 91.667L295.444 91.667L295.444 376.398H383.5Z" fill="#FAFAFA"/>
<path d="M285.518 85.667H183.719V382.399H285.518V85.667Z" fill="#EBEBEB"/>
<path d="M285.519 381.232H288.573L288.573 86.8344H285.519L285.519 381.232Z" fill="#E0E0E0"/>
<path d="M278.646 376.398L278.646 91.667L190.59 91.667L190.59 376.398H278.646Z" fill="#FAFAFA"/>
<path d="M436.871 83.4433H137.219C136.486 83.4433 135.886 82.8433 135.886 82.1103C135.886 81.3773 136.486 80.7773 137.219 80.7773H436.871C437.604 80.7773 438.204 81.3773 438.204 82.1103C438.205 82.8433 437.605 83.4433 436.871 83.4433Z" fill="#E0E0E0"/>
<path d="M383.5 97.332V91.666L295.444 91.666V97.332L383.5 97.332Z" fill="#E0E0E0"/>
<path d="M383.5 101.222V91.667L295.444 91.667V101.222L383.5 101.222Z" fill="#E0E0E0"/>
<path d="M278.647 112.555V91.666L190.591 91.666V112.555L278.647 112.555Z" fill="#E0E0E0"/>
<g opacity="0.8">
<path d="M403.445 74.5557H375.243V378.75H403.445V74.5557Z" fill="#F5F5F5"/>
<path d="M396 74.5557H382.687V378.75H396V74.5557Z" fill="#F0F0F0"/>
<path d="M418.573 74.5557H390.371V378.75H418.573V74.5557Z" fill="#F5F5F5"/>
<path d="M411.129 74.5557H397.816V378.75H411.129V74.5557Z" fill="#F0F0F0"/>
<path d="M432.674 74.5557H404.472V378.75H432.674V74.5557Z" fill="#F5F5F5"/>
</g>
<g opacity="0.8">
<path d="M181.453 74.5557H140.526V378.75H181.453V74.5557Z" fill="#F5F5F5"/>
<path d="M170.651 74.5557H151.331V378.75H170.651V74.5557Z" fill="#F0F0F0"/>
<path d="M203.408 74.5557H162.481V378.75H203.408V74.5557Z" fill="#F5F5F5"/>
<path d="M192.605 74.5557H173.285V378.75H192.605V74.5557Z" fill="#F0F0F0"/>
<path d="M223.872 74.5557H182.945V378.75H223.872V74.5557Z" fill="#F5F5F5"/>
</g>
<path d="M121.103 105.733H55.0723V254.4H121.103V105.733Z" fill="#F0F0F0"/>
<path d="M121.102 254.401H123.181L123.181 105.734H121.102L121.102 254.401Z" fill="#E6E6E6"/>
<path d="M115.103 248.4L115.103 111.733L61.072 111.733L61.072 248.4H115.103Z" fill="#FAFAFA"/>
<path d="M125.259 328.074H57.4765C54.3835 328.074 51.8535 325.544 51.8535 322.451C51.8535 319.358 54.3835 316.828 57.4765 316.828H125.259C128.352 316.828 130.882 319.358 130.882 322.451C130.882 325.544 128.352 328.074 125.259 328.074Z" fill="#F5F5F5"/>
<path d="M73.778 328.074H62.654L50 382.398H61.124L73.778 328.074Z" fill="#E6E6E6"/>
<path d="M95.985 328.074H84.861L78.627 382.398H89.751L95.985 328.074Z" fill="#E6E6E6"/>
<path d="M108.958 328.074H120.083L132.736 382.398H121.612L108.958 328.074Z" fill="#E6E6E6"/>
<path d="M250 427.561C357.082 427.561 443.889 422.492 443.889 416.238C443.889 409.985 357.082 404.915 250 404.915C142.918 404.915 56.1113 409.985 56.1113 416.238C56.1113 422.492 142.918 427.561 250 427.561Z" fill="#F5F5F5"/>
<path d="M314.577 307.578H229.238C227.629 307.578 226.312 306.261 226.312 304.652V301.287C226.312 299.678 227.629 298.361 229.238 298.361H314.577C316.186 298.361 317.503 299.678 317.503 301.287V304.652C317.503 306.262 316.186 307.578 314.577 307.578Z" fill="#263238"/>
<path d="M313.762 410.241H317.503L313.197 307.578H308.021L313.762 410.241Z" fill="#74423C"/>
<path opacity="0.6" d="M313.762 410.241H317.503L313.197 307.578H308.021L313.762 410.241Z" fill="white"/>
<path d="M279.327 410.241H275.586L279.892 307.578H285.068L279.327 410.241Z" fill="#74423C"/>
<path opacity="0.6" d="M279.327 410.241H275.586L279.892 307.578H285.068L279.327 410.241Z" fill="white"/>
<path d="M264.488 410.241H268.229L263.923 307.578H258.747L264.488 410.241Z" fill="#74423C"/>
<path opacity="0.6" d="M264.488 410.241H268.229L263.923 307.578H258.747L264.488 410.241Z" fill="white"/>
<path d="M230.053 410.241H226.313L230.618 307.578H235.794L230.053 410.241Z" fill="#74423C"/>
<path opacity="0.6" d="M230.053 410.241H226.313L230.618 307.578H235.794L230.053 410.241Z" fill="white"/>
<g opacity="0.3">
<path d="M313.2 307.575H308.018L308.26 311.939H313.384L313.2 307.575Z" fill="#74423C"/>
<path d="M279.71 311.939H284.825L285.066 307.575H279.894L279.71 311.939Z" fill="#74423C"/>
<path d="M258.749 307.575L258.991 311.939H264.106L263.922 307.575H258.749Z" fill="#74423C"/>
<path d="M230.431 311.939H235.556L235.798 307.575H230.615L230.431 311.939Z" fill="#74423C"/>
</g>
<path d="M262.085 395.154L253.616 399.651L240.283 381.639L248.752 377.143L262.085 395.154Z" fill="#FFB573"/>
<path d="M250.564 396.872L259.399 390.728C259.721 390.504 260.118 390.559 260.356 390.86L265.645 397.553C266.194 398.247 265.99 399.407 265.241 399.909C262.128 401.995 260.725 402.723 256.655 405.139C254.151 406.625 248.148 410.15 244.46 411.753C240.854 413.321 239.292 409.663 240.712 408.655C244.075 406.268 248.537 401.587 249.545 398.299C249.728 397.705 250.094 397.2 250.564 396.872Z" fill="#263238"/>
<path opacity="0.2" d="M248.758 377.146L240.285 381.644L246.709 390.315L254.989 385.556L248.758 377.146Z" fill="black"/>
<path d="M269.189 270.469C269.189 270.469 203.447 268.423 203.222 295.891C202.899 335.373 240.368 387.215 240.368 387.215L254.956 377.467C254.956 377.467 229.279 339.775 229.059 308.955C248.435 303.485 294.044 306.915 299.967 290.858C304.812 277.722 302.281 270.469 302.281 270.469H269.189Z" fill="#74423C"/>
<path opacity="0.2" d="M269.189 270.469C269.189 270.469 203.447 268.423 203.222 295.891C202.899 335.373 240.368 387.215 240.368 387.215L254.956 377.467C254.956 377.467 229.279 339.775 229.059 308.955C248.435 303.485 294.044 306.915 299.967 290.858C304.812 277.722 302.281 270.469 302.281 270.469H269.189Z" fill="black"/>
<path d="M258.981 379.976L241.543 390.656L236.074 385.107L255.233 373.044L258.981 379.976Z" fill="#263238"/>
<path d="M248.73 400.181C249.456 399.676 250.156 398.967 250.63 398.442C250.689 398.377 250.704 398.283 250.668 398.202C250.632 398.121 250.552 398.07 250.464 398.069C250.091 398.069 246.807 398.095 246.109 399.14C245.947 399.382 245.924 399.664 246.043 399.956C246.239 400.437 246.549 400.718 246.964 400.791C247.492 400.885 248.12 400.605 248.73 400.181ZM249.941 398.527C248.729 399.786 247.663 400.462 247.042 400.353C246.784 400.308 246.593 400.123 246.457 399.789C246.394 399.634 246.401 399.508 246.48 399.391C246.856 398.828 248.625 398.581 249.941 398.527Z" fill="#74423C"/>
<path d="M250.592 398.476C250.621 398.456 250.645 398.429 250.662 398.398C250.698 398.33 250.697 398.249 250.658 398.182C250.599 398.081 249.203 395.696 247.878 395.483C247.521 395.426 247.2 395.522 246.923 395.767C246.591 396.062 246.492 396.424 246.644 396.784C247.059 397.768 249.373 398.594 250.481 398.516C250.521 398.513 250.559 398.499 250.592 398.476ZM247.3 396.036C247.452 395.93 247.618 395.893 247.806 395.923C248.597 396.049 249.562 397.3 250.06 398.062C248.975 397.96 247.327 397.256 247.055 396.61C247.003 396.487 246.975 396.318 247.219 396.1C247.245 396.076 247.273 396.055 247.3 396.036Z" fill="#74423C"/>
<path d="M246.429 406.194L236.926 405.744L235.37 383.309L244.873 383.758L246.429 406.194Z" fill="#FFB573"/>
<path d="M236.708 404.119L247.464 403.779C247.855 403.767 248.159 404.029 248.195 404.411L248.986 412.905C249.068 413.786 248.266 414.648 247.364 414.661C243.617 414.715 241.821 414.551 237.091 414.701C234.181 414.793 228.456 415.226 224.467 414.724C220.565 414.233 221.088 410.289 222.824 410.147C226.934 409.81 232.442 406.97 235.079 404.762C235.553 404.361 236.136 404.137 236.708 404.119Z" fill="#263238"/>
<path d="M233.367 405.894C234.251 405.866 235.224 405.653 235.908 405.471C235.993 405.449 236.057 405.378 236.071 405.291C236.085 405.203 236.046 405.117 235.972 405.069C235.659 404.866 232.891 403.099 231.736 403.595C231.468 403.71 231.295 403.933 231.236 404.243C231.139 404.754 231.245 405.158 231.554 405.445C231.947 405.81 232.626 405.917 233.367 405.894ZM235.284 405.167C233.582 405.562 232.319 405.549 231.858 405.119C231.667 404.941 231.607 404.682 231.674 404.327C231.705 404.163 231.78 404.061 231.911 404.006C232.533 403.739 234.151 404.495 235.284 405.167Z" fill="#74423C"/>
<path d="M235.858 405.478C235.893 405.477 235.928 405.468 235.959 405.45C236.026 405.413 236.069 405.344 236.073 405.266C236.079 405.149 236.207 402.388 235.211 401.488C234.943 401.245 234.621 401.151 234.255 401.206C233.816 401.273 233.536 401.522 233.467 401.907C233.279 402.958 234.77 404.912 235.742 405.45C235.779 405.47 235.818 405.479 235.858 405.478ZM234.427 401.639C234.612 401.633 234.772 401.692 234.912 401.82C235.507 402.357 235.635 403.931 235.637 404.841C234.782 404.164 233.784 402.676 233.907 401.986C233.93 401.855 233.999 401.697 234.322 401.648C234.359 401.643 234.393 401.64 234.427 401.639Z" fill="#74423C"/>
<path opacity="0.2" d="M244.876 383.764L235.369 383.314L236.264 396.143L245.738 396.127L244.876 383.764Z" fill="black"/>
<path d="M292.575 270.469C292.575 270.469 223.788 276.973 226.293 297.677C229.906 327.54 231.693 391.901 231.693 391.901L249.224 392.59C249.224 392.59 256.653 334.539 252.81 303.959C270.611 303.959 314.189 305.24 318.163 294.514C321.674 285.039 320.421 270.468 320.421 270.468H292.575V270.469Z" fill="#74423C"/>
<path d="M251.16 393.671L230.119 392.628L229.363 383.47L252.436 385.064L251.16 393.671Z" fill="#263238"/>
<path d="M277.307 209.81C277.18 211.494 277.046 212.948 276.855 214.494C276.675 216.018 276.467 217.534 276.226 219.048C275.757 222.078 275.165 225.095 274.462 228.12C272.998 234.167 271.215 240.209 267.867 246.34C266.986 247.876 266.029 249.401 264.782 250.926C263.56 252.429 261.966 254.016 260.242 255.154C256.759 257.51 252.796 258.631 249.167 258.889C245.511 259.167 242.085 258.721 238.882 257.915C237.279 257.511 235.726 257.011 234.219 256.42C233.464 256.13 232.724 255.804 231.989 255.464C231.231 255.12 230.579 254.762 229.739 254.311L232.37 247.617L234.281 247.859L236.284 248.063C237.619 248.169 238.942 248.234 240.236 248.238C242.823 248.245 245.309 247.99 247.45 247.412C249.597 246.818 251.32 245.922 252.54 244.764C253.174 244.166 253.631 243.631 254.197 242.82C254.75 242.033 255.265 241.016 255.777 239.982C256.787 237.853 257.653 235.421 258.372 232.873C259.128 230.338 259.744 227.685 260.291 224.992C260.856 222.303 261.31 219.558 261.744 216.806L262.334 212.666C262.507 211.309 262.705 209.855 262.835 208.623L277.307 209.81Z" fill="#FFB573"/>
<path d="M277.369 201.663C270.336 194.867 261.668 198.879 258.21 211.605C254.752 224.331 254.213 232.478 254.213 232.478L276.483 237.084C280.531 224.938 284.571 208.622 277.369 201.663Z" fill="#263238"/>
<path opacity="0.3" d="M270.197 215.563C271.788 214.126 276.312 220.547 279.069 228.488C278.291 231.457 277.396 234.379 276.488 237.089L263.092 234.32C264.164 226.403 266.627 218.78 270.197 215.563Z" fill="black"/>
<path d="M230.855 244.537L225.899 242.628L225.681 253.239C225.681 253.239 234.084 256.873 235.794 252.699L235.192 250.052C234.675 247.783 233.074 245.746 230.855 244.537Z" fill="#FFB573"/>
<path d="M219.959 242.907L217.009 251.812L225.681 253.239L225.899 242.628L219.959 242.907Z" fill="#FFB573"/>
<path d="M227.522 249.975C227.314 249.975 227.113 249.862 227.01 249.664L218.076 232.47C217.93 232.188 218.04 231.84 218.322 231.693C218.605 231.548 218.953 231.657 219.099 231.939L228.033 249.133C228.179 249.415 228.069 249.763 227.787 249.91C227.702 249.954 227.612 249.975 227.522 249.975Z" fill="#263238"/>
<path d="M276.543 194.848L287.217 191.803L300.944 191.155C305.227 190.953 309.097 193.642 310.434 197.715C313.052 205.69 315.459 217.244 317.212 227.214C319.179 238.394 320.203 255.196 320.419 270.469H269.187C268.018 238.62 263.964 219.79 262.167 209.37C261.443 205.171 263.6 201.013 267.447 199.181L276.543 194.848Z" fill="#263238"/>
<path opacity="0.3" d="M317.208 227.217C315.83 219.37 314.05 210.533 312.071 203.24C302.94 201.697 298.515 221.723 301.226 231.653C303.937 241.583 318.394 235.565 318.394 235.565C318.046 232.552 317.65 229.742 317.208 227.217Z" fill="black"/>
<path d="M285.401 171.012C287.596 176.411 286.275 186.313 281.937 183.511C277.6 180.71 284.061 167.715 285.401 171.012Z" fill="#263238"/>
<path d="M282.962 174.464L278.813 180.796L273.167 189.426C273.554 189.628 274.417 190.982 274.912 191.981C275.943 194.059 276.796 195.614 272.432 198.59C271.498 199.227 270.91 200.342 271.122 201.452C271.379 202.8 272.725 204.11 277.435 203.278C282.89 202.315 286.541 199.432 289.256 196.717C290.825 195.148 290.465 193.966 288.954 192.341C284.671 187.738 283.39 180.39 282.962 174.464Z" fill="#FFB573"/>
<path opacity="0.2" d="M274.556 187.305L278.02 181.154C278.091 181.307 278.173 181.484 278.256 181.661C278.527 182.321 278.798 183.146 278.998 184.017C279.634 186.75 277.513 190.65 275.18 192.512C275.086 192.335 275.003 192.158 274.909 191.982C274.473 191.087 273.731 189.908 273.307 189.531C273.26 189.484 273.213 189.448 273.166 189.425L274.556 187.305Z" fill="black"/>
<path d="M253.787 167.001C252.501 169.909 257.074 178.152 262.304 174.819C267.533 171.486 256.067 161.845 253.787 167.001Z" fill="#263238"/>
<path d="M279.007 205.052C278.867 205.052 278.744 204.95 278.722 204.809C278.335 202.336 276.739 200.769 274.888 198.954C272.57 196.678 269.941 194.098 269.075 189.051C269.049 188.894 269.153 188.745 269.31 188.718C269.476 188.688 269.617 188.797 269.643 188.953C270.477 193.816 273.035 196.327 275.291 198.542C277.134 200.352 278.874 202.06 279.291 204.72C279.315 204.877 279.208 205.025 279.051 205.05C279.036 205.051 279.022 205.052 279.007 205.052Z" fill="white"/>
<path d="M281.13 164.074C283.086 173.133 284.694 178.343 281.455 184.107C276.584 192.777 264.379 191.598 259.74 183.261C255.565 175.757 253.068 162.204 260.839 156.353C268.496 150.59 279.174 155.015 281.13 164.074Z" fill="#FFB573"/>
<path d="M283.821 170.293C280.703 174.722 272.524 166.587 273.19 161.127C265.069 165.75 256.25 171.923 250.896 166.721C244.72 160.719 246.413 152.122 253.65 151.353C252.369 153.851 259.619 154.96 263.523 151.097C270.072 144.616 280.419 145.974 280.227 151.225C285.222 149.24 290.674 160.559 283.821 170.293Z" fill="#263238"/>
<path d="M279.272 152.689C281.204 151.253 279.916 146.124 275.439 144.616C279.696 145.166 284.107 148.341 279.272 152.689Z" fill="#263238"/>
<path d="M286.707 169.891C286.809 172.144 285.96 174.243 284.814 175.603C283.091 177.648 280.435 176.017 279.82 173.466C279.266 171.169 279.984 167.623 282.239 166.525C284.462 165.443 286.591 167.315 286.707 169.891Z" fill="#FFB573"/>
<path d="M268.133 171.416C268.374 172.151 268.185 172.887 267.711 173.061C267.237 173.235 266.657 172.781 266.416 172.046C266.175 171.312 266.364 170.575 266.838 170.401C267.313 170.227 267.892 170.682 268.133 171.416Z" fill="#263238"/>
<path d="M259.935 174.425C260.176 175.16 259.987 175.896 259.513 176.07C259.039 176.244 258.459 175.79 258.218 175.055C257.977 174.32 258.166 173.584 258.64 173.41C259.114 173.236 259.694 173.69 259.935 174.425Z" fill="#263238"/>
<path d="M262.738 174.036C262.738 174.036 262.794 178.165 261.976 180.533C263.446 181.068 265.068 179.802 265.068 179.802L262.738 174.036Z" fill="#ED893E"/>
<path d="M267.132 183.835C270.009 182.84 270.996 180.49 271.04 180.381C271.087 180.265 271.032 180.133 270.916 180.085C270.8 180.037 270.668 180.093 270.62 180.209C270.608 180.236 269.487 182.913 266.168 183.633C266.044 183.659 265.968 183.78 265.995 183.903C266.021 184.025 266.142 184.103 266.265 184.076C266.571 184.011 266.86 183.929 267.132 183.835Z" fill="#263238"/>
<path d="M268.883 168.241C268.949 168.206 269.006 168.154 269.05 168.087C269.185 167.876 269.125 167.595 268.914 167.46C266.827 166.12 264.917 167.004 264.837 167.042C264.614 167.123 264.514 167.42 264.622 167.646C264.73 167.872 265 167.968 265.226 167.861C265.305 167.825 266.784 167.17 268.423 168.223C268.567 168.316 268.743 168.317 268.883 168.241Z" fill="#263238"/>
<path d="M258.309 169.68C258.317 169.606 258.308 169.529 258.277 169.455C258.181 169.224 257.915 169.113 257.684 169.21C255.393 170.161 255.031 172.235 255.017 172.322C254.956 172.551 255.143 172.802 255.391 172.843C255.638 172.883 255.871 172.716 255.912 172.469C255.928 172.383 256.232 170.795 258.031 170.048C258.19 169.982 258.291 169.838 258.309 169.68Z" fill="#263238"/>
<path d="M308.669 198.025C309.633 199.643 310.47 201.097 311.298 202.659C312.123 204.197 312.926 205.744 313.711 207.303C315.295 210.414 316.727 213.61 318.095 216.869C319.425 220.144 320.678 223.487 321.72 226.994C322.738 230.514 323.643 234.148 323.988 238.248C324.141 240.305 324.175 242.488 323.762 244.952C323.576 246.095 323.178 247.69 322.435 249.164C321.711 250.647 320.623 252.044 319.384 253.105C318.145 254.183 316.798 254.927 315.522 255.445C314.239 255.965 313.009 256.273 311.845 256.472C309.515 256.87 307.418 256.802 305.436 256.646C303.455 256.482 301.584 256.152 299.776 255.731C297.968 255.319 296.221 254.821 294.517 254.248C291.086 253.106 287.901 251.773 284.657 250.076L287.193 243.346C293.409 244.521 300.09 245.614 305.695 245.271C307.07 245.189 308.355 244.95 309.318 244.649C310.289 244.348 310.831 243.9 310.79 243.761C310.782 243.681 310.73 243.713 310.705 243.665C310.678 243.613 310.674 243.556 310.729 243.038C310.802 242.171 310.735 240.965 310.534 239.683C310.14 237.093 309.326 234.187 308.301 231.308C307.278 228.414 306.093 225.483 304.775 222.579C303.495 219.657 302.061 216.767 300.631 213.867C299.907 212.421 299.164 210.982 298.403 209.556L296.142 205.369L308.669 198.025Z" fill="#FFB573"/>
<path d="M303.983 191.313C294.314 189.843 289.569 198.132 294.116 210.511C298.663 222.889 302.94 229.845 302.94 229.845L323.766 220.709C320.034 208.46 313.883 192.818 303.983 191.313Z" fill="#263238"/>
<path d="M281.843 242.386L277.376 243.731L283.705 252.72C283.705 252.72 293.091 249.359 291.169 245.279L288.81 243.936C286.788 242.783 284.232 241.567 281.843 242.386Z" fill="#FFB573"/>
<path d="M273.432 249.927L277.899 254.393L283.706 252.72L277.377 243.731L273.432 249.927Z" fill="#FFB573"/>
<path d="M283.179 172.752C283.972 172.752 284.615 171.973 284.615 171.012C284.615 170.051 283.972 169.272 283.179 169.272C282.386 169.272 281.743 170.051 281.743 171.012C281.743 171.973 282.386 172.752 283.179 172.752Z" fill="white"/>
<path d="M284.372 175.613L283.538 175.585L283.027 171.574L284.614 171.218L284.372 175.613Z" fill="white"/>
<path d="M290.115 251.198C287.081 251.198 284.455 250.756 282.837 249.296C281.682 248.254 281.096 246.737 281.096 244.788C281.096 239.972 282.096 236.065 282.978 232.62C284.374 227.171 285.475 222.867 282.132 217.564C276.816 209.13 278.398 197.339 282.118 189.954C284.969 184.299 284 178.04 283.636 175.684C283.588 175.376 283.552 175.139 283.535 174.983C283.519 174.824 283.635 174.683 283.793 174.667C283.946 174.658 284.093 174.767 284.109 174.925C284.124 175.075 284.159 175.303 284.205 175.597C284.577 178.003 285.566 184.395 282.634 190.215C278.984 197.46 277.422 209.014 282.62 217.259C286.095 222.771 284.909 227.402 283.536 232.764C282.662 236.177 281.672 240.045 281.672 244.789C281.672 246.594 282.179 247.928 283.223 248.869C285.916 251.299 291.878 250.682 297.645 250.087C300.222 249.82 302.887 249.545 305.239 249.545C305.398 249.545 305.527 249.674 305.527 249.833C305.527 249.992 305.398 250.121 305.239 250.121C302.917 250.121 300.267 250.396 297.705 250.66C295.116 250.927 292.491 251.198 290.115 251.198Z" fill="white"/>
<path d="M317.221 249.062H305.838C305.506 249.062 305.238 249.332 305.238 249.663V250.464C305.238 250.796 305.507 251.064 305.838 251.064H317.221C317.553 251.064 317.821 250.795 317.821 250.464V249.663C317.822 249.332 317.553 249.062 317.221 249.062Z" fill="white"/>
<path d="M388.639 257.724H111.361C109.529 257.724 108.031 256.225 108.031 254.394C108.031 252.563 109.529 251.064 111.361 251.064H388.639C390.471 251.064 391.969 252.562 391.969 254.394C391.969 256.225 390.471 257.724 388.639 257.724Z" fill="#74423C"/>
<path opacity="0.3" d="M388.639 257.724H323.728C321.897 257.724 320.398 256.225 320.398 254.394C320.398 252.563 321.897 251.064 323.728 251.064H388.639C390.471 251.064 391.969 252.562 391.969 254.394C391.969 256.225 390.471 257.724 388.639 257.724Z" fill="#263238"/>
<path d="M385.582 414.623H391.969L384.617 257.725H375.78L385.582 414.623Z" fill="#263238"/>
<path opacity="0.1" d="M385.582 414.623H391.969L384.617 257.725H375.78L385.582 414.623Z" fill="white"/>
<path d="M326.785 414.623H320.398L327.75 257.725H336.588L326.785 414.623Z" fill="#263238"/>
<path opacity="0.2" d="M326.785 414.623H320.398L327.75 257.725H336.588L326.785 414.623Z" fill="white"/>
<path d="M173.215 414.623H179.602L172.25 257.725H163.412L173.215 414.623Z" fill="#263238"/>
<path opacity="0.1" d="M173.215 414.623H179.602L172.25 257.725H163.412L173.215 414.623Z" fill="white"/>
<path d="M114.418 414.623H108.031L115.383 257.725H124.22L114.418 414.623Z" fill="#263238"/>
<path opacity="0.2" d="M114.418 414.623H108.031L115.383 257.725H124.22L114.418 414.623Z" fill="white"/>
<path d="M330.498 266.07H117.245V279.219H330.498V266.07Z" fill="#263238"/>
<path opacity="0.2" d="M330.498 266.07H117.245V279.219H330.498V266.07Z" fill="white"/>
<path d="M152.33 242.216C151.558 242.216 150.931 242.842 150.931 243.615V249.666C150.931 250.438 151.557 251.065 152.33 251.065H197.683C197.935 251.065 198.139 250.861 198.139 250.609V242.672C198.139 242.42 197.935 242.216 197.683 242.216H152.33Z" fill="#74423C"/>
<path opacity="0.9" d="M198.138 243.059H179.171C178.725 243.059 178.364 243.421 178.364 243.866V249.413C178.364 249.859 178.725 250.22 179.171 250.22H198.138V243.059Z" fill="white"/>
<path d="M176.044 242.216H130.235C129.463 242.216 128.836 242.842 128.836 243.615V249.666C128.836 250.438 129.462 251.065 130.235 251.065H176.044C176.816 251.065 177.443 250.439 177.443 249.666V243.615C177.443 242.843 176.816 242.216 176.044 242.216Z" fill="#74423C"/>
<path opacity="0.2" d="M176.044 242.216H130.235C129.463 242.216 128.836 242.842 128.836 243.615V249.666C128.836 250.438 129.462 251.065 130.235 251.065H176.044C176.816 251.065 177.443 250.439 177.443 249.666V243.615C177.443 242.843 176.816 242.216 176.044 242.216Z" fill="black"/>
<path opacity="0.5" d="M153.514 242.216H146.57C146.255 242.216 146 242.471 146 242.786V250.493C146 250.808 146.255 251.064 146.57 251.064H153.514C153.829 251.064 154.084 250.808 154.084 250.493V242.786C154.084 242.472 153.829 242.216 153.514 242.216Z" fill="#74423C"/>
<path opacity="0.5" d="M163.553 242.216H156.609C156.294 242.216 156.039 242.471 156.039 242.786V250.493C156.039 250.808 156.294 251.064 156.609 251.064H163.553C163.868 251.064 164.123 250.808 164.123 250.493V242.786C164.123 242.472 163.868 242.216 163.553 242.216Z" fill="#74423C"/>
<path d="M144.128 231.324C143.355 231.324 142.729 231.95 142.729 232.723V240.817C142.729 241.59 143.355 242.216 144.128 242.216H193.257C193.509 242.216 193.713 242.012 193.713 241.76V231.78C193.713 231.528 193.509 231.324 193.257 231.324H144.128Z" fill="#74423C"/>
<path opacity="0.9" d="M193.713 232.167H170.971C170.525 232.167 170.164 232.528 170.164 232.974V240.565C170.164 241.011 170.526 241.372 170.971 241.372H193.714L193.713 232.167Z" fill="white"/>
<path d="M167.843 231.324H129.319C128.546 231.324 127.92 231.95 127.92 232.723V240.817C127.92 241.589 128.546 242.216 129.319 242.216H167.843C168.615 242.216 169.242 241.59 169.242 240.817V232.723C169.242 231.95 168.615 231.324 167.843 231.324Z" fill="#74423C"/>
<path opacity="0.2" d="M167.843 231.324H129.319C128.546 231.324 127.92 231.95 127.92 232.723V240.817C127.92 241.589 128.546 242.216 129.319 242.216H167.843C168.615 242.216 169.242 241.59 169.242 240.817V232.723C169.242 231.95 168.615 231.324 167.843 231.324Z" fill="white"/>
<path opacity="0.6" d="M164.231 233.484H136.025C135.554 233.484 135.173 233.866 135.173 234.336V239.202C135.173 239.673 135.555 240.054 136.025 240.054H164.231C164.702 240.054 165.083 239.672 165.083 239.202V234.336C165.083 233.866 164.701 233.484 164.231 233.484Z" fill="#74423C"/>
<path d="M158.543 226.106C157.771 226.106 157.144 226.475 157.144 226.931V230.499C157.144 230.955 157.77 231.324 158.543 231.324H203.896C204.148 231.324 204.352 231.204 204.352 231.055V226.375C204.352 226.227 204.148 226.106 203.896 226.106H158.543Z" fill="#74423C"/>
<path opacity="0.9" d="M204.351 226.604H185.197C184.855 226.604 184.577 226.881 184.577 227.224V230.207C184.577 230.549 184.855 230.827 185.197 230.827H204.351V226.604Z" fill="white"/>
<path d="M182.581 226.106H136.123C135.53 226.106 135.049 226.587 135.049 227.18V230.249C135.049 230.842 135.53 231.323 136.123 231.323H182.581C183.174 231.323 183.655 230.842 183.655 230.249V227.18C183.656 226.587 183.175 226.106 182.581 226.106Z" fill="#74423C"/>
<path opacity="0.2" d="M182.581 226.106H136.123C135.53 226.106 135.049 226.587 135.049 227.18V230.249C135.049 230.842 135.53 231.323 136.123 231.323H182.581C183.174 231.323 183.655 230.842 183.655 230.249V227.18C183.656 226.587 183.175 226.106 182.581 226.106Z" fill="black"/>
<path opacity="0.5" d="M141.962 226.106H140.511C140.395 226.106 140.3 226.2 140.3 226.317V231.113C140.3 231.229 140.394 231.324 140.511 231.324H141.962C142.078 231.324 142.173 231.23 142.173 231.113V226.317C142.173 226.201 142.078 226.106 141.962 226.106Z" fill="#74423C"/>
<path opacity="0.5" d="M179.684 226.106H178.26C178.145 226.106 178.051 226.2 178.051 226.315V231.114C178.051 231.229 178.145 231.323 178.26 231.323H179.684C179.8 231.323 179.893 231.229 179.893 231.114V226.315C179.893 226.2 179.8 226.106 179.684 226.106Z" fill="#74423C"/>
<path d="M150.341 218.567C149.568 218.567 148.942 218.936 148.942 219.392V225.282C148.942 225.738 149.568 226.107 150.341 226.107H199.47C199.722 226.107 199.926 225.987 199.926 225.838V218.836C199.926 218.688 199.722 218.567 199.47 218.567H150.341Z" fill="#74423C"/>
<path opacity="0.9" d="M199.925 219.064H176.995C176.653 219.064 176.375 219.341 176.375 219.684V224.99C176.375 225.332 176.653 225.61 176.995 225.61H199.925V219.064Z" fill="white"/>
<path d="M174.381 218.567H135.207C134.614 218.567 134.133 219.048 134.133 219.641V225.032C134.133 225.625 134.614 226.106 135.207 226.106H174.381C174.974 226.106 175.455 225.625 175.455 225.032V219.641C175.455 219.048 174.974 218.567 174.381 218.567Z" fill="#74423C"/>
<path opacity="0.1" d="M174.381 218.567H135.207C134.614 218.567 134.133 219.048 134.133 219.641V225.032C134.133 225.625 134.614 226.106 135.207 226.106H174.381C174.974 226.106 175.455 225.625 175.455 225.032V219.641C175.455 219.048 174.974 218.567 174.381 218.567Z" fill="black"/>
<path d="M259.919 249.398H218.645C218.187 249.398 217.812 249.773 217.812 250.23C217.812 250.688 218.187 251.063 218.645 251.063H259.919C260.377 251.063 260.751 250.688 260.751 250.23C260.752 249.773 260.377 249.398 259.919 249.398Z" fill="white"/>
<path d="M340.66 247.419H367.779L370.23 250.966H338.21L340.66 247.419Z" fill="#263238"/>
<path d="M382.539 186.834C382.539 188.849 380.906 190.482 378.891 190.482C376.876 190.482 375.243 188.849 375.243 186.834C375.243 184.819 376.876 183.186 378.891 183.186C380.906 183.186 382.539 184.819 382.539 186.834Z" fill="black"/>
<path d="M355.116 249.819C354.967 249.819 354.815 249.79 354.669 249.727C354.082 249.48 353.808 248.803 354.056 248.217L380.184 186.384C380.431 185.797 381.105 185.52 381.694 185.771C382.281 186.018 382.555 186.695 382.307 187.281L356.179 249.114C355.992 249.555 355.566 249.819 355.116 249.819Z" fill="#263238"/>
<path d="M381.243 187.986C381.003 187.986 380.76 187.912 380.553 187.757L333.098 152.186C332.588 151.803 332.485 151.081 332.868 150.572C333.248 150.063 333.971 149.959 334.481 150.341L381.936 185.913C382.446 186.295 382.549 187.017 382.166 187.526C381.941 187.827 381.594 187.986 381.243 187.986Z" fill="#263238"/>
<path d="M384.893 186.834C384.893 188.849 383.259 190.482 381.245 190.482C379.231 190.482 377.597 188.849 377.597 186.834C377.597 184.819 379.23 183.186 381.245 183.186C383.26 183.186 384.893 184.819 384.893 186.834Z" fill="#263238"/>
<path d="M333.79 154.901C335.801 154.901 337.43 153.271 337.43 151.261C337.43 149.251 335.801 147.621 333.79 147.621C331.78 147.621 330.15 149.251 330.15 151.261C330.15 153.271 331.78 154.901 333.79 154.901Z" fill="#263238"/>
<path d="M328.688 167.896C325.503 171.081 320.34 171.081 317.155 167.896C313.97 164.711 313.97 159.547 317.155 156.363C320.34 153.178 325.504 153.178 328.688 156.363C331.873 159.547 331.873 164.711 328.688 167.896Z" fill="#74423C"/>
<path opacity="0.7" d="M328.688 167.896C325.503 171.081 320.34 171.081 317.155 167.896C313.97 164.711 313.97 159.547 317.155 156.363C320.34 153.178 325.504 153.178 328.688 156.363C331.873 159.547 331.873 164.711 328.688 167.896Z" fill="white"/>
<path d="M333.79 151.261C326.962 144.433 315.893 144.434 309.066 151.261L333.79 175.985C340.617 169.158 340.617 158.089 333.79 151.261Z" fill="#263238"/>
<g opacity="0.2">
<path d="M309.065 151.263L205.236 251.065H311.748L333.79 175.987L309.065 151.263Z" fill="#74423C"/>
<path opacity="0.7" d="M309.065 151.263L205.236 251.065H311.748L333.79 175.987L309.065 151.263Z" fill="white"/>
</g>
</svg>
